ply
format ascii 1.0
element vertex 36
property float x
property float y
property float z
property uchar red
property uchar green
property uchar blue
end_header
0.7959183782178552 -0.08273990231230267 -0.09911491113273956 44 45 36
0.762304068619456 -0.05207477533063552 -0.016979166288588508 104 105 101
0.7627934151657819 -0.05174142025478914 -0.01476334344323137 97 98 94
0.7920366591584473 0.591171358716105 -0.903602977945454 194 194 198
0.7610071608289516 -0.052687567331645827 -0.01427731859361205 72 69 64
0.7611707866178825 -0.05212950223901562 -0.013455825410861398 80 83 82
0.7611707866178825 -0.05212950223901562 -0.013455825410861398 80 83 82
0.7611552182352362 -0.05205450060192824 -0.01345710938274239 82 88 86
0.7611552182352362 -0.05205450060192824 -0.01345710938274239 82 88 86
0.7613642085522837 -0.052004199531257844 -0.012913840277386289 92 91 91
0.7611481628473508 -0.05194385089601284 -0.013441750277886529 83 83 79
0.7611698929163996 -0.05171795829836701 -0.013296176382706418 118 119 115
0.7615497283824041 -0.05163813732599473 -0.012133783232798984 90 96 94
0.7616067992075843 -0.051586217555144 -0.01208337432321353 92 95 96
0.7611659265430918 -0.051623366067801005 -0.013303276615617466 122 126 121
0.7615792581229692 -0.05146801064465602 -0.012037374644055217 88 91 90
0.7615792581229692 -0.05146801064465602 -0.012037374644055217 88 91 90
0.761156465677875 -0.051533407088992254 -0.013290885094533076 115 118 117
0.7607854823560376 -0.051459075623985384 -0.013987651565484963 109 109 105
0.7617526493501292 -0.051298667665045816 -0.011126144641626229 73 76 75
0.7612219173650853 -0.05138607896968619 -0.013056363373647033 131 138 132
0.7612219173650853 -0.05138607896968619 -0.013056363373647033 131 138 132
0.7617453719427525 -0.051281714719355824 -0.011356167972906067 69 69 69
0.7611954446598175 -0.05135750126760736 -0.013118741234669265 140 144 139
0.7616029505683259 -0.05125959498408085 -0.011756935062866243 107 110 111
0.7615416141840398 -0.05120998516878782 -0.011918773443900651 110 111 105
1.3438637885731652 0.12678852117869527 -0.604447196023999 31 31 35
0.9571488969705049 -0.10391096081804832 -0.15719768647025123 28 31 32
0.9571488969705049 -0.10391096081804832 -0.15719768647025123 27 33 31
0.9403503013312964 -0.005317450021865163 -0.15968101292573128 189 189 189
0.7998157967301242 -0.047555947632270335 -0.07756042566802154 188 188 190
1.1352844620052944 0.039781084775546136 -0.41855969989218006 184 187 186
1.1352844620052944 0.039781084775546136 -0.41855969989218006 184 187 186
0.771746120238579 -0.08934521759813416 -0.049951583039843664 164 170 170
0.7718708055904163 -0.09094580218687479 -0.049116773407933835 24 23 23
0.7711956638529818 -0.08691668827490061 -0.05091804409971921 185 185 185
