ply
format ascii 1.0
element vertex 61
property float x
property float y
property float z
property uchar red
property uchar green
property uchar blue
end_header
-0.16357296501633492 -2.48980409265045 2.5089108656567096 124 122 114
0.2839202187758214 0.29585274105115733 1.1046766903854077 121 121 121
0.2935070074876624 -0.09220580234775827 1.0293229819139504 184 187 186
0.6941392463590842 -1.3747104619036599 0.7161889641165756 188 188 188
0.662704706925146 -1.331761826836033 0.5295141356072468 23 23 19
0.6165480136059431 -1.3956713477535685 0.5115928960589234 26 22 23
0.3317033112692009 -0.15787649310075147 1.3608095661605792 109 107 114
0.33164581068769 -0.15939744880066808 1.3682789964432491 174 175 171
0.3248221087925271 -0.15795993024443902 1.3523155340432933 98 94 97
0.32256657947107126 -0.1609478257085967 1.358842818922514 162 165 164
0.3212442665757447 -0.15979268647580888 1.3534524955152327 102 101 101
0.32052977556613044 -0.16253051888815007 1.3658605246111533 165 171 171
0.3201808710335358 -0.1617719484674726 1.3622131307599445 163 166 169
0.31861649654059815 -0.1654426726134988 1.37385109610136 120 116 109
0.3176765659240138 -0.16508161714919084 1.3669570874755503 165 165 169
0.31499500774918454 -0.16135601615571307 1.363000693462483 116 116 120
0.3156522791482628 -0.16668788450760075 1.3741369820339209 87 83 76
0.3134638019631302 -0.16351153799456794 1.3688681026673617 104 100 103
0.3134947562626773 -0.16378821877416147 1.3592822023924884 114 117 120
0.3137352277860261 -0.16584806912464503 1.3717119882730997 153 156 155
0.3120698140611954 -0.1658926755682655 1.367737666147522 157 160 161
0.3120698140611954 -0.1658926755682655 1.367737666147522 157 160 161
0.311327157775726 -0.16468957266691076 1.3637687069252633 162 162 162
0.31008290927881466 -0.16642096240351223 1.3703077025964754 116 119 118
0.30822586048836453 -0.1662002647402484 1.3645447844220917 161 161 163
0.307749359747479 -0.16783309066969035 1.3767329951971443 124 122 112
0.30434909600916454 -0.16935705467706894 1.372230322313593 102 101 101
0.30271557461860427 -0.16701097885712357 1.3602805073431947 156 159 158
0.30066074663756726 -0.16928733656570844 1.364860978510693 157 160 161
0.3000266158823994 -0.16906606129691037 1.37233577515953 117 117 117
0.29596189462868794 -0.1673888693674269 1.3590469974680615 120 123 124
0.29391851643120953 -0.16807374448618131 1.3571880654571564 101 101 103
0.2933706934178567 -0.17132906294592212 1.3769570388093646 126 124 114
0.2912402596009398 -0.16824267479418872 1.3594349681513007 144 144 146
0.2912402596009398 -0.16824267479418872 1.3594349681513007 144 144 146
0.2896971205026749 -0.16776273597760086 1.3612465535027722 108 114 116
0.28458242328425953 -0.17358589771403024 1.3725285315309252 159 162 163
0.284285457100082 -0.17138788344082864 1.3680485259017496 164 164 164
0.2834652958106243 -0.17090311582867423 1.3659590552931873 160 163 164
0.2834652958106243 -0.17090311582867423 1.3659590552931873 160 163 164
0.28262382040605494 -0.17284728892670645 1.376823735121365 98 96 88
0.28128664882740034 -0.17218832619017643 1.3681637025358784 148 154 154
0.2807352812902671 -0.17211835142082785 1.365627442953702 156 162 162
0.2792056543466826 -0.17329780184304067 1.3727381010284843 155 161 159
0.2778324479993376 -0.17166902529704078 1.363365586931102 94 94 96
0.2733127386229965 -0.16950703937974043 1.3492302651675219 141 147 147
0.2726778567361066 -0.17267438810354355 1.3636880709131074 107 107 111
0.2726778567361066 -0.17267438810354355 1.3636880709131074 107 107 111
0.26457735347202455 -0.17348244422138873 1.3641967163361783 92 95 98
0.2635937729912059 -0.1749777239677751 1.3675427729746572 155 155 157
0.26044950265461875 -0.17695526436981843 1.3707852365577906 143 143 143
0.2586527124331287 -0.17633999315649934 1.3683948978873257 145 151 151
0.25679935169799073 -0.17749904851310638 1.3714710461644117 152 155 154
0.2548816147731045 -0.17629882352967577 1.3684941332744602 143 146 145
0.24964798817195727 -0.17697685247225473 1.3639382551869617 149 152 151
0.2480740690908419 -0.17918415424374812 1.369649129362259 158 161 160
0.2446753528311677 -0.17849564161726084 1.3719392755313842 157 157 157
0.2439495149783322 -0.17720478617236307 1.361643457517741 112 112 112
0.23177978661028575 -0.17752071078973738 1.3596110401916077 148 154 154
0.22474691503099142 -0.1572462563103692 1.2408561215151606 30 36 34
0.18295206315729898 -0.15839641121675396 1.2061137824011323 23 26 25
