ply
format ascii 1.0
element vertex 13
property float x
property float y
property float z
property uchar red
property uchar green
property uchar blue
end_header
-0.1825672576882269 0.43544449589430584 -1.7316925376652001 157 168 164
0.2155320078757642 -0.32373206469965227 -1.9007706735853969 175 173 182
0.22171065580308424 -0.315254616779471 -1.8938106877802119 109 109 113
0.21797160711093028 -0.24297128956264122 -1.8959194970996671 112 106 110
0.07044700019786017 -0.22631102347446827 -1.7994671599484693 167 170 171
-0.24192315799326478 -0.39538811393315604 -0.7904388225143183 136 147 147
-0.10680817781551569 -0.26498078986058526 -0.579336889640022 50 55 64
-0.22715050817511892 0.04728316570119881 -0.8013669736265941 30 29 40
0.08611675211212207 -0.12422472618321778 -0.8810003653212062 134 130 133
-0.5050235828723216 1.9407137083772696 -2.5733070587287803 206 213 207
-0.08738466083163814 -0.21579891433553575 -0.7882363954027133 196 195 199
-0.5521611233066999 0.20993406149529795 -1.0888401675531876 19 25 27
-0.3835003148045482 -0.3141730413081191 -0.5304140736174866 31 43 45
