ply
format ascii 1.0
element vertex 19
property float x
property float y
property float z
property uchar red
property uchar green
property uchar blue
end_header
0.2486510907834439 -0.6861423132163103 -0.3484377114449622 196 196 198
0.05711198440542125 -0.6578893130674467 -0.5085052141751324 126 124 114
0.06450753117171591 -0.6549756596210906 -0.5114259113982742 144 144 146
0.06450753117171591 -0.6549756596210906 -0.5114259113982742 144 144 146
0.06345647397005384 -0.6546057117163534 -0.5109191782697935 108 114 116
0.05847476380473499 -0.6527606113860777 -0.5087442884887157 159 162 163
0.06021044041771874 -0.652346878859768 -0.5094555070230027 164 164 164
0.06101852909467798 -0.6516233483485634 -0.5099904204756082 160 163 164
0.06101852909467798 -0.6516233483485634 -0.5099904204756082 160 163 164
0.05626454614552923 -0.6526363067445665 -0.507706525802128 98 96 88
0.05994738698681727 -0.6507356450885838 -0.5093602016621055 148 154 154
0.06105594152700554 -0.6501703685884221 -0.509632161306148 156 162 162
0.05780173372740792 -0.6503291330606272 -0.5082165977075938 155 161 159
0.06176019317399579 -0.6485057130928401 -0.5097979032199458 94 94 96
0.06780055818123282 -0.644528650356922 -0.5117543198526131 141 147 147
0.06121984689706955 -0.6459317455670366 -0.5092524670594505 107 107 111
0.06121984689706955 -0.6459317455670366 -0.5092524670594505 107 107 111
0.12392922935947069 -0.6055872642014201 -0.5136366161924364 30 36 34
0.14377584784807707 -0.5767947173951343 -0.5036534867285785 23 26 25
