ply
format ascii 1.0
element vertex 36
property float x
property float y
property float z
property uchar red
property uchar green
property uchar blue
end_header
0.08273990231230065 0.09911491113273406 0.7959183782178533 44 45 36
0.05207477533063507 0.016979166288585874 0.7623040686194547 104 105 101
0.05174142025478933 0.014763343443233783 0.7627934151657825 97 98 94
-0.5911713587161032 0.9036029779454519 0.7920366591584477 194 194 198
0.05268756733164599 0.014277318593613414 0.7610071608289516 72 69 64
0.052129502239015295 0.013455825410857897 0.7611707866178812 80 83 82
0.052129502239015295 0.013455825410857897 0.7611707866178812 80 83 82
0.05205450060192796 0.013457109382739658 0.7611552182352351 82 88 86
0.05205450060192796 0.013457109382739658 0.7611552182352351 82 88 86
0.052004199531257796 0.012913840277387758 0.7613642085522844 92 91 91
0.05194385089601285 0.013441750277889115 0.7611481628473512 83 83 79
0.0517179582983669 0.013296176382707687 0.7611698929164005 118 119 115
0.05163813732599486 0.012133783232800385 0.7615497283824044 90 96 94
0.05158621755514382 0.012083374323210236 0.7616067992075822 92 95 96
0.05162336606780098 0.01330327661561642 0.7611659265430918 122 126 121
0.05146801064465593 0.012037374644056475 0.7615792581229699 88 91 90
0.05146801064465593 0.012037374644056475 0.7615792581229699 88 91 90
0.051533407088992206 0.013290885094530837 0.7611564656778743 115 118 117
0.051459075623985245 0.013987651565484543 0.7607854823560377 109 109 105
0.05129866766504562 0.011126144641622381 0.7617526493501278 73 76 75
0.05138607896968591 0.013056363373644443 0.7612219173650843 131 138 132
0.05138607896968591 0.013056363373644443 0.7612219173650843 131 138 132
0.05128171471935565 0.011356167972904594 0.7617453719427515 69 69 69
0.05135750126760751 0.013118741234667924 0.7611954446598167 140 144 139
0.05125959498408049 0.01175693506286393 0.7616029505683247 107 110 111
0.051209985168787824 0.01191877344390044 0.7615416141840395 110 111 105
-0.12678852117870085 0.6044471960240156 1.3438637885731815 31 31 35
0.10391096081804814 0.157197686470254 0.9571488969705086 28 31 32
0.10391096081804814 0.157197686470254 0.9571488969705086 27 33 31
0.0053174500218635835 0.15968101292573392 0.9403503013312988 189 189 189
0.047555947632270244 0.07756042566802197 0.7998157967301243 188 188 190
-0.03978108477554768 0.4185596998921838 1.1352844620052973 184 187 186
-0.03978108477554768 0.4185596998921838 1.1352844620052973 184 187 186
0.08934521759813342 0.049951583039845315 0.7717461202385796 164 170 170
0.0909458021868745 0.04911677340793374 0.771870805590417 24 23 23
0.08691668827490096 0.05091804409971821 0.7711956638529815 185 185 185
