ply
format ascii 1.0
element vertex 319
property float x
property float y
property float z
property uchar red
property uchar green
property uchar blue
end_header
1.1109266286088129 0.15536742630799863 -0.3981296442832703 115 116 112
1.0585605186274487 0.10937081762509696 -0.3549111425765399 140 141 137
1.063352855934073 0.10895246313974451 -0.36271099672462737 94 90 91
1.1031673741614971 0.12490786038956642 -0.39640745809833555 99 98 98
1.079680881822778 0.08229311101426354 -0.3585611992882999 138 145 139
1.0911361951276815 0.06535466250678118 -0.3954460147014949 167 173 173
1.1017258451939196 0.0591955315797238 -0.39229861652043296 105 106 102
1.100339689745215 0.05093623314348706 -0.39208981624972905 146 157 155
1.09138874995547 0.044143425894891467 -0.3972007437422977 109 112 111
1.1024060316363267 0.043433674405062205 -0.39385694921382136 146 154 151
1.1140849300060476 0.04325779529889734 -0.39556219674547 89 92 93
1.0961893924030284 0.04051057532563242 -0.3942490870212125 96 97 93
1.0961893924030284 0.04051057532563242 -0.3942490870212125 96 97 93
1.0924034256820627 0.03834982672642012 -0.39441043306082635 155 161 159
0.8858806821822305 0.02196756243779197 -0.37252070703674767 31 34 37
1.107857521098714 0.025069845560627805 -0.3924432197439488 142 150 149
1.120408179935164 0.024828132697268496 -0.39490304056481584 74 74 70
1.118915969826216 0.020328203386438603 -0.39315388575039845 98 98 92
1.069257283747528 0.013900335342459208 -0.3678421234511875 172 175 176
1.0889285498609125 0.01605283480420212 -0.39396918719609747 106 109 112
0.9925462987686193 0.0017204407438583637 -0.4070056608158189 52 60 61
1.0715909268840238 -0.0018029729346543198 -0.36537452482573896 152 163 161
1.0768312399445275 -0.010532929035310121 -0.36819876730088946 118 118 120
0.9464540001246212 -0.08599293326497312 -0.40778624987817075 21 28 22
1.1025404008374962 0.19749510824932348 -0.4068470821491553 56 55 55
1.0675118857913142 0.17104643191406793 -0.3777353023469418 111 112 108
1.0749300633034327 0.17671701173341764 -0.3999113608369627 84 79 77
2.0835687776462617 0.5708749050611476 -1.2497468473557578 85 74 67
1.077217292659115 0.14821530794216994 -0.3775244854539708 98 97 97
1.0985559163780105 0.15210232969628154 -0.3857005927518314 133 133 129
1.0094960380690443 0.1193979238633268 -0.38145603366912456 77 80 83
1.0094960380690443 0.1193979238633268 -0.38145603366912456 77 80 83
1.0880741214693732 0.11628623083211932 -0.3864360537193501 158 161 160
1.084517410116393 0.09190479173699788 -0.3839879429494631 121 121 123
1.1091723772772564 0.09458097388998177 -0.3947995884140888 105 108 109
1.095101345717537 0.09221830147414374 -0.4009230459861034 108 108 108
1.0970186629305343 0.08501767507672649 -0.3942606327899162 161 169 168
0.9994486019180064 0.07026786356468041 -0.39122770195170453 194 202 199
0.9994486019180064 0.07026786356468041 -0.39122770195170453 194 202 199
1.0884857798419174 0.07200561272838821 -0.38764258763762716 110 116 114
1.1000021704205043 0.05278496276423069 -0.39371077348278083 93 93 95
1.098874919063391 0.045081135220709445 -0.39016915653179207 151 157 155
1.098874919063391 0.045081135220709445 -0.39016915653179207 151 157 155
1.1040982130925598 0.03373553399255979 -0.39262052371913614 105 108 109
1.0915447336719806 0.033344990030570065 -0.3930508630420179 156 162 162
0.83618023896494 0.018518769860812672 -0.3810697961616825 175 174 181
1.086315202749749 0.004262870447235856 -0.3898749584077931 107 107 111
1.0099522266478191 0.00397554521630275 -0.38618429888271427 80 86 88
0.8390777222053798 0.13176031280583575 -0.39903763809368736 129 125 128
0.7781160174949053 0.10724141474500631 -0.4007994943744679 71 73 64
0.9874286355181385 0.11913314744150741 -0.4059457509014234 62 64 70
0.8387046524585594 0.10659724029219347 -0.39349435011022327 128 131 134
0.7814348594903678 0.070524322184046 -0.40228391585723156 63 54 57
0.7813167821861139 0.06845032802842312 -0.3998714847485892 81 71 71
1.0795301037870986 0.06663769951761378 -0.3824044521237207 99 102 103
1.066353542627296 0.046286078562428924 -0.5341349082947395 56 64 63
0.9748807528606069 0.02792497405760245 -0.37838377493890835 46 53 57
0.9013531262180624 -0.0009413219463241383 -0.41952416946184934 27 33 31
1.0157210077332135 -0.005495946587217655 -0.3934729997446579 49 55 57
0.9566452695870798 -0.013820793907297676 -0.3778194361574707 189 195 195
0.9566452695870798 -0.013820793907297676 -0.3778194361574707 189 195 195
0.9276997252987338 -0.04039072153333358 -0.41511295843439555 21 24 25
1.0791361599728932 0.14496044886842152 -0.37974607886892897 106 106 102
1.0810147005084354 0.14045417478637218 -0.3770103463500267 163 169 169
1.1020266542398987 0.14645883185868305 -0.4078547400767795 114 115 111
1.1039898095992546 0.13451181565255452 -0.41036978066240926 163 169 167
1.1184824671669522 0.10592323536104688 -0.41456728430627915 110 116 114
1.1024998755703885 0.09947824514238744 -0.4031753181188397 157 165 162
1.1038102648020092 0.09092087106343123 -0.3858898189331543 92 100 99
1.12070001082165 0.069711931975957 -0.40178390130713937 95 98 97
1.1306033706881058 0.05901943957943026 -0.413100783039832 136 142 140
1.1151263507441351 0.03525210537882155 -0.40585221707133745 100 103 104
1.1066137614701619 0.025825870830197162 -0.40175562625908784 84 83 85
1.094455278998136 0.023524556778120664 -0.38705032285419055 77 77 79
1.0861206629196845 -0.003620034973515811 -0.3895936355657749 88 88 90
0.9825136785955723 -0.036980129889360655 -0.39101045368599996 40 40 42
1.1316283180404572 0.1641788940452785 -0.42044719665502805 89 89 89
1.0742764757735037 0.09517985728858241 -0.37583437236193695 168 176 175
0.9467755201093099 0.08577358053568077 -0.3709484964388121 40 48 45
0.874264669991195 0.07487159292879292 -0.3780879801544772 33 32 32
1.082518126881833 0.07712355744061246 -0.3837873371247701 156 162 162
1.0806201191236566 0.047574268821256975 -0.3787758363867742 162 169 163
0.8306514610574264 0.043015725778675566 -0.35744261831960866 129 128 135
1.0949061070099748 0.04282655437735312 -0.39037657018258215 160 166 166
0.9625192079865686 -0.00020726460679556052 -0.4032585436007346 38 46 47
1.110138444089606 0.2649200084002554 -0.3890240477239715 132 129 115
0.9500839263559371 0.09225584647746587 -0.39263355759402163 47 44 41
1.0970565988207595 0.09566121475605832 -0.39914377147694424 161 172 172
1.0953730815742897 0.07131329510996491 -0.3984289032910872 128 131 130
1.116285189643536 0.05354665097610862 -0.39780079595567364 100 106 104
1.0999212046991986 0.03986722900698467 -0.39719804049310115 119 122 125
1.1023989842175748 0.009559558823735315 -0.3953399001033196 145 153 152
1.0948529816357582 0.008798320906093364 -0.39558669892518133 122 125 128
1.0948529816357582 0.008798320906093364 -0.39558669892518133 122 125 128
1.0934441684017617 0.0012369765835337433 -0.3964810810626323 168 176 175
2.2179834709013457 0.013795677645013217 -1.2864237632933695 83 79 72
1.0955715343383507 -0.011147746908066266 -0.39651083458715547 106 110 105
1.1077218150730797 -0.011903643494411748 -0.39553821677463075 98 101 102
1.1073224498681944 -0.011974712693949943 -0.39486468259858293 98 101 102
1.0866505880010693 -0.014152773595378016 -0.3956224919895902 161 167 169
1.0980086857557037 -0.01504360982931891 -0.39268072236354246 96 99 98
1.0910284127050056 -0.015436531863622378 -0.39483226995677906 160 168 167
1.090926376930414 -0.022649937390766862 -0.3906693727337401 108 114 116
0.9964780143845102 -0.052930748003671146 -0.3877699280813947 197 205 206
2.0951651111020375 1.4329388539824879 -1.2515446657321574 102 103 92
2.2097113905924464 1.5437243813301564 -1.3472036709085442 48 37 43
1.0830433267146067 0.13300932372483054 -0.3872168556561802 96 95 95
1.0830433267146067 0.13300932372483054 -0.3872168556561802 96 95 95
1.1245838283279248 0.11341390053812304 -0.4286922382752622 124 127 128
1.1195469735398875 0.11102284268631298 -0.4254305322994183 159 167 166
1.0876524208935578 0.08687814137711433 -0.3972238318013825 132 132 132
1.1095239205573328 0.06409948489602667 -0.40671541995811783 124 127 128
1.1044032050309984 0.03837392976705801 -0.39929998593031835 152 163 161
1.0999656680371463 0.006901492840144037 -0.3959410778742335 96 99 102
1.0885564513196972 -0.008608382662996619 -0.3976232995400407 181 189 188
1.0976738410593874 -0.009441862903651562 -0.39608664517869724 157 168 166
0.898972315520444 -0.01772607077455261 -0.3943153184877359 187 195 196
1.110060730016631 -0.024584171963181915 -0.39705193371527725 107 110 109
1.1178346685405964 -0.03425708778842029 -0.39578200486893844 98 98 92
1.0960753722072178 -0.034684356597327395 -0.3970671476859773 96 96 96
1.0960997749811194 -0.034680839842376514 -0.397079475276376 96 96 96
1.1012641601996507 -0.04177723000337694 -0.39625450542659796 108 108 108
1.116253665709455 -0.04267150667037686 -0.40140647473286645 90 90 92
1.0967755168826354 -0.0450248690414857 -0.39736963716716855 92 91 95
1.1141678797306285 -0.05145484972009883 -0.3982423066917325 73 76 79
1.0973114450485915 -0.0530448788040416 -0.3954554051834262 127 135 136
1.09188216130812 -0.05581594099485417 -0.39172464440108634 91 91 95
1.0997014072206168 -0.05624109058674774 -0.40017208292853557 91 91 95
1.097303773970949 -0.05934831240936316 -0.3967538197697329 82 82 86
1.1102163139020476 -0.06923997972742194 -0.411197095203813 70 75 80
1.1102163139020476 -0.06923997972742194 -0.411197095203813 70 75 80
1.1119346931193732 -0.07163925350474855 -0.40694449387141723 60 63 66
1.1119346931193732 -0.07163925350474855 -0.40694449387141723 60 63 66
0.9425966608876978 -0.09142694389678233 -0.38547239133983396 32 35 34
0.9154100892942659 0.08492848190895151 -0.39086776617571567 37 37 39
1.0923663404685093 0.08299157411228517 -0.39339432423146875 167 175 172
1.1168717844627114 0.028755347203151628 -0.39594462051018375 99 103 98
1.1044873738358074 0.0006296536793900943 -0.39403498090824995 110 113 114
1.1087095905916917 -0.004437841504556086 -0.3979663020802317 105 113 114
1.0989829186886282 -0.00879984970757477 -0.3947927196255034 117 123 121
1.1102873085401581 -0.008832206203620246 -0.3981739328471665 104 111 115
1.089402531922629 -0.013208372389560184 -0.39686549489892786 110 113 116
1.0971685420458586 -0.018589062412299805 -0.3987097134065497 105 108 109
1.0971685420458586 -0.018589062412299805 -0.3987097134065497 105 108 109
1.1094368420815117 -0.018715930791082615 -0.40529684348026035 118 124 124
1.091623959072205 -0.023983947915309823 -0.3960659708043763 165 178 175
1.1118343457875781 -0.03243255016196802 -0.3986398249933316 107 107 109
1.0998950502736438 -0.04187093066481125 -0.394912577598571 119 119 121
1.088852519350202 -0.05737912262818358 -0.3950953678652645 92 94 100
1.0929020619236696 -0.059783940133779245 -0.39584587097438506 132 138 138
1.094765698806156 -0.061156953459528686 -0.3949080966017405 94 94 98
1.1066980365328918 -0.06403538467361788 -0.3894290576667245 82 85 88
1.0611331525284065 -0.0633445076133291 -0.36457671143100157 131 139 140
1.1577335765418408 0.36250888298455886 -0.4401499222953641 112 109 104
0.906410745698153 0.05087162790005951 -0.3664810478811851 37 37 37
0.973394912031022 0.02415813984004142 -0.3680773393246438 55 66 66
0.9714235140273205 0.01804706848546393 -0.3655151543488081 192 200 201
0.8983231038366956 -0.038878183534320036 -0.3318247228148571 34 41 45
0.9909358522905342 -0.06326988243604514 -0.3948246416455518 189 200 200
0.9909358522905342 -0.06326988243604514 -0.3948246416455518 189 200 200
0.7996490477070327 0.15350316254110033 -0.3999015243194978 213 205 202
0.7689975044681178 0.04863427488545512 -0.39701005317553817 69 69 71
0.9236499180620309 0.0561726456120408 -0.3887760138932694 34 40 40
0.7764115122255566 0.032975229549488776 -0.3936428918046461 72 78 76
0.7721333407194455 0.02449641870537749 -0.3886296822258109 71 76 66
0.7728008559029281 0.012742491697447062 -0.3805157218694833 80 81 75
0.7690026741674599 0.008977137468323355 -0.37584920748624595 75 78 77
0.7738538777887283 -0.0029581912801735694 -0.3817629969632374 76 85 76
0.7741389403586775 -0.004698827896255668 -0.3848978715784377 71 77 75
0.7792699290063719 -0.004059704954192136 -0.388280898347409 56 62 62
0.7742842844384883 -0.008495741541929495 -0.38723831862084895 64 72 71
0.777980730368142 -0.02115064337702921 -0.3806894237174387 73 77 72
0.777980730368142 -0.02115064337702921 -0.3806894237174387 73 77 72
0.96049347381252 -0.023867412669212513 -0.3851384846715539 185 193 192
0.772512655174469 -0.03755363165560865 -0.3727632909874179 55 61 59
0.772512655174469 -0.03755363165560865 -0.3727632909874179 55 61 59
0.8685835204254815 -0.06727669208589941 -0.33457472005336286 28 31 32
0.7652693572152659 0.047729441674716315 -0.3969823222935569 74 78 73
0.8606135490550251 -0.05659015242354097 -0.35476038348214833 37 36 38
0.8331935210056786 0.14667658843439918 -0.3902564908992378 121 112 115
0.8329580720080285 0.10910138947066171 -0.37454829016179025 177 173 174
0.8354865812480559 0.07739325129745307 -0.39114103874571654 175 175 177
0.8350276932891122 0.07314707613320175 -0.39318236912557625 182 181 181
0.9513182865575184 0.33875038072918956 -1.5249691291531926 121 124 125
0.9819993880379895 0.04251930225821925 -0.40355070480824184 144 159 156
0.8356022221812899 0.009505188438805944 -0.3907812145535181 98 101 100
0.8348457088077345 -0.009046369642532333 -0.3892309697137954 156 159 162
0.9482890191761234 -0.06739753612695856 -0.3888602288192723 21 27 25
0.8338605439986598 0.0945875614891036 -0.3913802961500639 179 182 185
0.8697554253619141 0.06920966181047561 -0.36695355865879487 175 183 182
0.8465408655217401 0.07223797133864687 -0.4951606487823964 181 184 183
0.8349006145392159 0.035703642826848764 -0.39443492041780054 109 112 113
0.8350911119161061 0.0299665773848331 -0.3942254789695937 178 184 184
0.8344001292130696 0.002886775537398953 -0.3980594381506165 163 166 167
0.8369209602623069 -0.028695916343658045 -0.3971868881752718 165 165 165
0.8339695639571577 0.0795214473444577 -0.3907951820400061 188 187 189
1.0851862111483954 0.07881282292274626 -0.39128043082471825 107 107 109
1.085167742645612 0.07396361035666472 -0.3915538783118338 132 131 133
1.091385116705268 0.06762293283178931 -0.3994236057185496 190 191 185
0.8354384541709123 0.056730923365289 -0.39140932903750325 120 119 121
1.0832981584748236 0.024401780911395072 -0.39031533590747214 106 105 107
0.8343702344600946 0.15163590659609175 -0.40946272288086855 116 110 112
0.981700207134251 0.1376178824505998 -0.33626091824817117 48 37 41
0.8791811202959164 0.07605698882682038 -0.3898010158998529 23 27 22
0.834177812363408 0.048179692887573865 -0.39226329671111637 131 130 134
1.084115813945433 0.062279172491593864 -0.39036066759888927 84 84 88
0.8367234124555658 0.0498730132607792 -0.4053247148628097 179 179 181
1.0955890818540484 0.05841091348168586 -0.4016570372146917 103 103 103
0.8361737008605673 0.027888722265770098 -0.40505642190414676 106 105 109
0.8865200469140823 0.023311498369007023 -0.3773127057648826 21 24 25
0.8865200469140823 0.023311498369007023 -0.3773127057648826 21 24 25
0.836277274593257 0.004457899339367715 -0.4045018168177617 115 115 115
0.9849164407116767 -0.028664845396582133 -0.38254344007241836 32 40 39
0.8347480463172676 0.05073380271955243 -0.3871513473224323 143 143 139
0.8357796375678291 0.03576591800740687 -0.3861123214014159 193 193 193
0.8354176326158267 0.02590528842891601 -0.39131815549200943 184 183 185
1.075161724882671 0.03003580725132773 -0.3820928788000126 102 105 104
0.8367495275460195 0.014904962058893342 -0.3902437055341999 182 181 183
0.8364077827733062 -0.009393102533862161 -0.38790498979658516 179 182 185
1.0852346139866968 -0.01504699471872026 -0.39243956520726836 112 112 114
1.083107323044195 -0.022011730599711964 -0.390372055039708 125 124 124
0.9532310590641849 -0.03096630286073358 -0.3996579017413917 28 31 30
0.9600424202164034 -0.06321743549511746 -0.3991140741870232 29 35 33
0.8350699192725468 0.014360315036221444 -0.3895017558245973 186 186 188
0.8360038942437141 0.007630350754906218 -0.38949287175636094 129 126 123
0.8360038942437141 0.007630350754906218 -0.38949287175636094 129 126 123
0.8348750731601671 0.028705618060075534 -0.38780854451853947 180 180 184
0.8348750731601671 0.028705618060075534 -0.38780854451853947 180 180 184
0.8344201462589579 0.02440756899922586 -0.38839035806110456 126 126 128
0.8344201462589579 0.02440756899922586 -0.38839035806110456 126 126 128
0.8365498946098254 0.014412140925017174 -0.382588226377111 128 129 125
0.9150319896200865 -0.03709877993667183 -0.39168827027995756 22 25 24
0.9150319896200865 -0.03709877993667183 -0.39168827027995756 22 25 24
1.114968595915208 0.21321045575151187 -0.4686219238665377 67 70 69
1.1292678784714154 0.21100534283401662 -0.4637736278127285 80 79 81
0.8358929488923192 0.05763669103452123 -0.4298248731050353 202 201 201
0.8932552927213916 0.031767877492431006 -0.4172001513998403 194 197 198
1.0820424527225265 0.008366563052821404 -0.43947867024802345 211 210 212
0.957288901230495 0.1226219729268831 -0.7105484664641786 28 34 34
0.957288901230495 0.1226219729268831 -0.7105484664641786 28 34 34
1.1136780512830633 0.09905450053792472 -0.4012077322719523 77 77 79
0.8805928389878516 -0.04417733098578063 -0.4048019594787324 28 24 27
0.9401695468114315 -0.05413765472245518 -0.40925918203900813 181 177 178
0.9540704473795212 0.053812276598545594 -0.2560922708044764 101 100 100
0.9614540144920881 0.02412119716210739 -0.26245577018520516 96 99 100
0.8969386148864008 0.0037658551939670306 -0.2533300002077385 43 54 52
0.9554395229192525 -0.0048243106177735485 -0.2614113707232392 192 193 189
0.9531211753863552 -0.005049701587968198 -0.2583222334523209 101 97 98
0.9545315771641879 -0.008740442542862364 -0.25970855485410654 82 81 81
0.8940865402560708 -0.08375285935399153 -0.37795292275493614 169 172 171
0.8307689914655961 0.007989071106678784 -0.36912497569884656 163 170 174
0.9980165298672762 -0.05820067855771176 -0.3951693362588298 42 41 45
0.7649019470765851 0.08421867265726339 -0.41594427983052756 50 50 50
0.7649019470765851 0.08421867265726339 -0.41594427983052756 50 50 50
0.8372408488149439 0.12989338538375975 -0.3931882692901332 185 181 182
0.9875286296948564 0.09636306150897231 -0.3870637478314119 57 63 63
1.0114005890137037 0.061058879113727045 -0.3879646456001167 76 76 78
1.0628027450455841 0.13219290702992437 -0.358451163988315 106 102 105
0.9884599031029627 0.07850754128583605 -0.364045387802551 64 67 68
1.0601087667826763 0.06701007983121819 -0.35882930798129087 117 117 119
0.9297206188977817 -0.04240766673626023 -0.37036456042801785 165 168 167
1.1044731728752162 0.299939789548598 -0.4008660562603497 69 65 58
1.1080105937102902 0.2722004539322692 -0.40343506552483926 31 19 17
1.1005140720144966 0.11356324857824818 -0.4002562370260467 92 91 93
1.1101057806347565 0.1060566941538719 -0.40001014930337014 110 109 109
1.1098101098938111 0.10088755371717935 -0.39419481312952953 112 108 111
1.1152395935669737 0.10122057478813375 -0.3977120977269436 169 172 171
1.1126173996648112 0.09963961997123245 -0.3982838946501737 97 97 99
1.0965486440524106 0.09646814686374916 -0.4007238050122071 107 107 107
1.106562188920427 0.09243394347773247 -0.39842287967886375 170 173 174
1.0968680199619074 0.08612500880481945 -0.39807002553370685 157 165 164
1.1039637984918613 0.08384880850504951 -0.3993041400762236 107 107 111
1.098288108860407 0.08281981682371038 -0.3990622769681245 160 166 168
1.1097034751702193 0.08145996050696745 -0.3974967470872719 109 109 113
1.107076062418554 0.08157694073484076 -0.3989080758208419 166 169 170
1.118583603847963 0.07952382488123143 -0.3988987312353327 163 166 165
1.1171799579786763 0.07820053720201929 -0.40018296371329704 101 101 103
1.1021802152650881 0.07546352199628661 -0.3913911335786606 165 168 167
1.1186782324596438 0.07670544707276802 -0.39922463374255834 158 162 157
1.110484142290308 0.07460143752011386 -0.39482239542289815 157 163 161
1.110484142290308 0.07460143752011386 -0.39482239542289815 157 163 161
1.09931016661774 0.07396185887603637 -0.39963492346436097 149 152 151
1.1117283033296903 0.07369446984441583 -0.3990111091822407 111 111 113
1.1117283033296903 0.07369446984441583 -0.3990111091822407 111 111 113
1.1135641209859606 0.07165296423951838 -0.3980193549538209 168 174 174
1.1083381257772733 0.0703378227501849 -0.39932692190351143 158 158 160
1.1165732187875634 0.06996609771074135 -0.3983304161008574 109 108 108
1.1165732187875634 0.06996609771074135 -0.3983304161008574 109 108 108
1.099757585573851 0.06981719141422614 -0.3967934467787147 84 83 85
1.1044208338468573 0.06640669346566602 -0.39771816234032037 116 116 116
1.1170801807661945 0.06529410563204716 -0.39600204086723917 162 166 161
1.0946201849286021 0.06444826286308826 -0.39696769165506784 111 117 117
1.1144213050185343 0.06233683508787219 -0.3974874330517054 159 159 161
1.1006027832303666 0.05918689581421446 -0.39760107708861603 99 98 100
1.1189730553359842 0.05867687925780046 -0.39816418249630864 168 175 169
1.1182304871307338 0.05611751920806691 -0.3969455134020222 153 153 153
1.1008733089989378 0.05497048538038312 -0.39778582241979454 88 88 92
1.1003088987717717 0.05262449242618166 -0.39674183467515756 100 96 97
1.0911892146368167 0.04919531963382138 -0.3907859980430325 90 90 92
1.1086478451256507 0.04832433102692911 -0.3971639563799151 158 164 164
1.118083360027365 0.04693525710169348 -0.3976880525895638 102 102 106
1.1028241616145182 0.042695183704688916 -0.3963668259089314 151 157 157
1.1128627269279778 0.03910627428853121 -0.3963903224020958 110 106 111
1.1138270513386366 0.036636060053957 -0.397223749129279 109 108 112
1.1020801416989194 0.03096479590681889 -0.3950743575225014 149 155 155
1.1077071920948898 0.02565416007368451 -0.3976625217577197 112 112 114
1.1108919950783043 0.023882506771930146 -0.3979941522784899 147 150 149
1.1046552352340233 0.024089285801506835 -0.39835959563755297 166 174 175
1.0971115981707997 0.02373354810026156 -0.39737459089992144 82 85 86
1.1068178925669863 0.022359677527293828 -0.39638273718115585 101 100 102
1.1099079261142486 0.0162629329496052 -0.3999784947486512 90 89 91
1.0999078008226977 0.016386538325882504 -0.4010871328936424 93 96 99
1.109673002389699 0.013820820451210943 -0.3990775828244135 99 98 100
1.1106312043702564 0.013219927248866208 -0.39752330345669706 162 165 164
1.1001310188510534 0.013117674065715129 -0.39762735828700496 146 152 150
1.1017021617617464 0.010171831157479855 -0.3961456831486701 96 92 95
1.102960155331627 0.00715103417712326 -0.3974567551480566 98 97 97
1.1015503549649117 0.005062252112772448 -0.39904604064563975 151 157 157
0.9572422119978715 -0.034593469957967776 -0.3948881862530614 24 27 28
