ply
format ascii 1.0
element vertex 21
property float x
property float y
property float z
property uchar red
property uchar green
property uchar blue
end_header
0.762789281172756 -0.05226527230400363 -0.01608849063819182 52 47 45
0.7628651422030547 -0.052225401957718555 -0.015953239443141976 58 59 55
0.7609425060739838 -0.05274243431191533 -0.014220459707744052 61 58 55
0.761250061954231 -0.05252670468045253 -0.013261706002409565 48 48 48
0.7611297058704475 -0.052314963118480926 -0.013393558160306346 58 58 58
0.7611174595171178 -0.05223645040732073 -0.013375987730753124 59 59 59
0.7610884541808639 -0.05208330402875663 -0.013352909937173984 75 75 71
0.7613130590791622 -0.05203089899593746 -0.012838345585217565 74 74 76
0.7610866684599848 -0.05197536751693582 -0.013347372097141786 75 71 72
0.7610866684599848 -0.05197536751693582 -0.013347372097141786 75 71 72
0.7615124696301762 -0.05165590222987441 -0.012077101160067983 72 75 78
0.7618420069280164 -0.05132134828735667 -0.010775074677943135 68 63 59
0.761726595885341 -0.05130886220851616 -0.011084803860570439 73 68 64
0.7615730405694144 -0.05127139107155796 -0.011711196917342478 114 111 106
0.7615430931660561 -0.05126923137642708 -0.011815332968619663 101 94 88
0.7618628616395624 -0.05125555000403708 -0.012255558202990981 196 197 188
0.7614734028770449 -0.05125763709336793 -0.012081831262387063 91 89 81
0.7615156959912337 -0.051227344630978444 -0.011891921185679916 198 198 192
0.9235126329047054 -0.048016965118701675 -0.15379676703353495 193 199 201
0.8099188165250185 -0.034299907509035686 -0.12471416136071023 34 36 42
0.7717337694872862 -0.0890179206541803 -0.05001015374057911 24 27 28
