ply
format ascii 1.0
element vertex 407
property float x
property float y
property float z
property uchar red
property uchar green
property uchar blue
end_header
-14.686599731445312 -4.428922653198242 30.11829948425293 42 35 29
-13.952622413635254 -4.616158962249756 30.42779541015625 27 27 21
-13.534042358398438 -4.858010768890381 30.566926956176758 30 30 24
-12.851099014282227 -4.470101356506348 30.147071838378906 29 26 21
6.609889030456543 8.291380882263184 22.90271759033203 18 18 12
-8.069701194763184 -3.7919914722442627 29.758609771728516 58 57 57
-7.090854644775391 1.9265614748001099 26.419357299804688 202 202 202
-6.36479377746582 -1.7481088638305664 27.616104125976562 207 207 209
-6.673340320587158 -4.387526512145996 30.676769256591797 97 97 99
-5.6439900398254395 5.956858158111572 24.396507263183594 79 79 83
7.979351043701172 6.518747329711914 22.33234214782715 124 134 137
-5.607638359069824 4.959124565124512 24.778173446655273 210 215 220
7.6429667472839355 -0.138108491897583 25.846771240234375 25 31 31
-5.366334438323975 7.377843856811523 23.64134407043457 27 30 29
-5.5497941970825195 0.8748368620872498 27.437719345092773 201 208 212
-5.34769344329834 2.321612596511841 26.41077423095703 184 191 195
-5.375925540924072 1.4555308818817139 26.877634048461914 202 205 206
-5.095185279846191 5.499518871307373 24.66156768798828 60 59 63
-5.095185279846191 5.499518871307373 24.66156768798828 60 59 63
7.706618785858154 1.3717105388641357 25.29668617248535 62 65 68
-5.180448532104492 1.6707510948181152 26.81917953491211 56 58 64
-4.764075756072998 5.839720726013184 24.445844650268555 35 38 39
-4.970623970031738 1.8643203973770142 26.591270446777344 203 202 204
-4.746325492858887 5.215873718261719 24.68961524963379 57 38 34
-4.913042068481445 2.230924606323242 26.508808135986328 45 37 34
-4.913042068481445 2.230924606323242 26.508808135986328 45 37 34
6.769588470458984 5.9420084953308105 23.307762145996094 46 45 45
-4.739345073699951 2.0978832244873047 26.400184631347656 201 200 200
-4.739345073699951 2.0978832244873047 26.400184631347656 201 200 200
-4.716618061065674 2.3024728298187256 26.484466552734375 199 202 205
-4.559637069702148 5.140449047088623 24.993532180786133 200 203 206
-4.696932315826416 2.032996416091919 26.630645751953125 194 202 201
-4.483181953430176 5.0034098625183105 24.886795043945312 196 203 207
-4.483181953430176 5.0034098625183105 24.886795043945312 196 203 207
6.549010276794434 6.560080051422119 23.2384033203125 27 33 31
6.153428077697754 6.183260440826416 23.38150978088379 27 33 31
-5.007230281829834 -4.551361560821533 30.292490005493164 125 125 127
7.015225410461426 5.056955337524414 23.570838928222656 189 197 196
-4.906616687774658 -4.762905120849609 30.707181930541992 102 102 104
-4.906616687774658 -4.762905120849609 30.707181930541992 102 102 104
-4.482816696166992 1.7742717266082764 26.88772201538086 49 56 62
-4.380744934082031 2.330981969833374 26.511323928833008 188 200 202
6.549010276794434 6.560080051422119 23.2384033203125 37 43 43
-4.702868461608887 -5.169229030609131 30.838327407836914 139 145 143
4.098240852355957 4.711225986480713 24.349092483520508 40 30 28
-0.11680939048528671 4.766824245452881 24.764663696289062 192 200 197
-4.29171085357666 -4.769615650177002 30.771738052368164 143 144 138
-3.6384973526000977 7.5032782554626465 23.62297821044922 47 38 41
-4.1423516273498535 -5.229281902313232 30.840293884277344 147 153 151
-3.698979616165161 2.6592371463775635 26.2625675201416 191 199 196
7.925616264343262 5.219945907592773 23.305953979492188 41 41 45
-4.0498857498168945 -4.314912796020508 30.88560676574707 150 156 156
-3.367250442504883 7.479305744171143 23.62325668334961 171 160 168
-3.367250442504883 7.479305744171143 23.62325668334961 171 160 168
-0.4425996243953705 6.050466060638428 24.133039474487305 191 197 195
-3.579162359237671 0.8757342100143433 27.272321701049805 57 65 64
-3.420651912689209 4.176929473876953 25.42350959777832 52 51 58
5.708592414855957 3.8756723403930664 24.45941734313965 24 27 26
5.708592414855957 3.8756723403930664 24.45941734313965 24 27 26
-3.7894601821899414 -4.9870123863220215 30.98393440246582 142 148 146
-3.7894601821899414 -4.9870123863220215 30.98393440246582 142 148 146
-3.356745958328247 3.849665880203247 25.494964599609375 48 47 56
-3.3357458114624023 3.3850762844085693 25.77121353149414 58 57 64
-3.3357458114624023 3.3850762844085693 25.77121353149414 58 57 64
-3.3148412704467773 3.6185593605041504 25.68027687072754 51 50 57
-3.3148412704467773 3.6185593605041504 25.68027687072754 51 50 57
-2.283508062362671 3.1717586517333984 25.809389114379883 41 44 45
-2.283508062362671 3.1717586517333984 25.809389114379883 41 44 45
5.296128273010254 6.943105697631836 22.861841201782227 31 34 35
-3.0903666019439697 7.285179615020752 23.762962341308594 85 62 61
-3.4278533458709717 -4.300908088684082 29.875146865844727 157 160 161
-3.0762476921081543 7.026185035705566 23.854780197143555 155 158 161
-3.0762476921081543 7.026185035705566 23.854780197143555 155 158 161
-3.249372959136963 -0.35900530219078064 27.820571899414062 197 200 201
-3.0285205841064453 3.9798359870910645 25.006519317626953 37 40 43
-3.1148524284362793 3.8401877880096436 25.936111450195312 200 203 206
-3.34372615814209 -5.435341835021973 30.86277961730957 137 145 144
5.596569538116455 7.651147365570068 22.55560302734375 65 75 80
-3.19221568107605 -5.385470390319824 30.629901885986328 115 121 123
-2.867882490158081 4.10398530960083 25.449594497680664 37 43 45
-2.867882490158081 4.10398530960083 25.449594497680664 37 43 45
-3.020034074783325 -4.786644458770752 30.239736557006836 147 153 153
-3.0875959396362305 -5.347377300262451 30.931232452392578 120 126 126
-2.7448160648345947 3.5356457233428955 25.29058265686035 197 202 207
-2.7448160648345947 3.5356457233428955 25.29058265686035 197 202 207
-2.6874773502349854 6.918862342834473 23.920818328857422 48 47 49
-2.91825008392334 -4.606380462646484 30.538707733154297 150 158 155
-2.8931162357330322 -4.8543853759765625 30.632638931274414 124 130 130
-2.6208348274230957 4.040224075317383 25.372398376464844 190 186 187
-2.6208348274230957 4.040224075317383 25.372398376464844 190 186 187
-2.5582432746887207 3.4007976055145264 25.79752540588379 49 47 54
-2.6007959842681885 0.4769211411476135 27.377761840820312 56 64 65
-2.6007959842681885 0.4769211411476135 27.377761840820312 56 64 65
-2.5603444576263428 -0.19685298204421997 27.71134376525879 69 74 79
-2.545275926589966 0.037917256355285645 27.610454559326172 196 204 203
-2.6362578868865967 -4.723928928375244 30.454620361328125 156 162 162
-2.696756601333618 -4.91602897644043 30.95467185974121 150 158 155
-2.6164324283599854 -4.3351545333862305 30.556495666503906 149 152 153
-2.325096368789673 -0.14228227734565735 27.737876892089844 184 190 192
-2.1747710704803467 4.459583759307861 25.152950286865234 204 207 208
-2.1747710704803467 4.459583759307861 25.152950286865234 204 207 208
-1.5806186199188232 6.022270202636719 24.419219970703125 168 179 179
-2.259779691696167 -4.380883693695068 30.41859245300293 168 176 175
-2.055518627166748 -0.36728838086128235 27.821701049804688 95 94 94
-2.065732479095459 -4.699589729309082 29.9376220703125 151 155 150
-1.9318586587905884 6.311222553253174 24.297365188598633 158 154 155
-1.9103610515594482 -5.137153625488281 30.855392456054688 149 157 156
-1.9103610515594482 -5.137153625488281 30.855392456054688 149 157 156
-1.627976655960083 5.105767250061035 25.30145835876465 206 212 214
-1.627976655960083 5.105767250061035 25.30145835876465 206 212 214
-1.5806186199188232 6.022270202636719 24.419219970703125 62 58 63
-1.5806186199188232 6.022270202636719 24.419219970703125 62 58 63
-1.4378808736801147 5.659244537353516 24.551956176757812 39 38 40
4.056468486785889 1.2804158926010132 26.220579147338867 190 198 195
2.879481554031372 2.24587345123291 26.12624740600586 76 81 86
-1.2667865753173828 5.288020133972168 24.988433837890625 35 38 39
-1.1831554174423218 2.0220718383789062 26.494632720947266 53 56 59
-1.1622567176818848 5.66551399230957 24.465518951416016 66 48 37
-1.1424994468688965 2.1685597896575928 26.358755111694336 49 52 55
3.5481574535369873 -0.0926496833562851 27.18224334716797 27 30 29
-0.862440824508667 5.4291582107543945 24.586627960205078 49 55 57
-1.0585891008377075 -4.432370662689209 30.051477432250977 157 160 161
-0.9769172668457031 -4.9607439041137695 31.049938201904297 128 128 128
-0.9152253866195679 -5.559613227844238 30.80314064025879 135 141 139
1.559259295463562 0.15665774047374725 27.1763916015625 190 196 194
-0.9190534353256226 5.635056972503662 24.505971908569336 125 132 138
-0.8830690979957581 1.6502219438552856 26.68136978149414 47 55 54
-0.9071013331413269 5.843103885650635 24.533302307128906 197 200 203
3.2566463947296143 3.59824800491333 24.789955139160156 29 37 34
-0.6754158139228821 2.2380008697509766 26.29461669921875 206 207 203
-0.6754158139228821 2.2380008697509766 26.29461669921875 206 207 203
-0.6263965964317322 1.3879598379135132 26.889318466186523 165 175 180
-0.6634264588356018 5.656235218048096 24.442501068115234 198 204 206
-0.6407275199890137 5.896672248840332 24.355987548828125 153 146 138
-0.6407275199890137 5.896672248840332 24.355987548828125 153 146 138
-0.5862818360328674 1.779120922088623 26.611848831176758 201 213 215
-0.4333956837654114 2.2033355236053467 26.244407653808594 198 206 207
-0.4333956837654114 2.2033355236053467 26.244407653808594 198 206 207
-0.4431583285331726 5.652618408203125 24.43778419494629 199 209 214
-0.3828265070915222 2.0027389526367188 26.451223373413086 56 55 55
7.011344909667969 5.256721496582031 23.53701400756836 50 56 56
3.7847704887390137 2.1448776721954346 25.8554630279541 50 56 56
-0.3742653429508209 5.026341915130615 24.897005081176758 167 177 180
-0.26772341132164 2.3451437950134277 26.234529495239258 50 46 47
-0.12782111763954163 -5.692127704620361 31.126279830932617 129 140 138
-0.1059313639998436 -4.886348247528076 30.334613800048828 126 132 134
-0.14926792681217194 1.7900810241699219 26.492464065551758 120 128 127
0.059891633689403534 -4.733195781707764 30.376131057739258 102 102 104
0.12278302013874054 -4.386656761169434 29.954965591430664 158 171 168
0.5361599922180176 -4.393448352813721 29.77009391784668 163 176 175
0.57137131690979 -4.993082523345947 29.904312133789062 151 162 160
0.57137131690979 -4.993082523345947 29.904312133789062 151 162 160
0.3592892289161682 2.965203046798706 25.850250244140625 44 44 48
0.29416975378990173 7.968569278717041 23.233190536499023 128 133 138
0.792722225189209 -4.476884365081787 30.283079147338867 167 178 178
0.5232866406440735 4.24811315536499 25.327350616455078 203 209 211
0.4338562786579132 7.387040615081787 23.400331497192383 40 39 46
0.594527006149292 3.175693988800049 25.69147300720215 202 208 210
0.9385865926742554 -5.824173450469971 31.14571762084961 128 136 135
3.6860570907592773 5.138084888458252 24.361513137817383 32 32 34
0.5388574004173279 7.800642490386963 23.436525344848633 37 36 40
0.9999369382858276 -4.537203311920166 30.41853141784668 141 148 152
0.9999369382858276 -4.537203311920166 30.41853141784668 141 148 152
0.7771509885787964 3.2972662448883057 25.402902603149414 46 45 54
1.226556420326233 -4.785913944244385 29.865346908569336 145 156 154
1.0114014148712158 0.37366369366645813 27.09540367126465 62 67 72
1.0114014148712158 0.37366369366645813 27.09540367126465 64 70 72
1.0766119956970215 0.0037630011793226004 27.314023971557617 71 74 77
1.2973248958587646 -5.3975701332092285 30.563661575317383 130 141 139
1.3165998458862305 -5.3001179695129395 30.42244529724121 113 119 119
0.8131526112556458 7.524226665496826 23.394392013549805 191 197 199
1.0058953762054443 3.5873255729675293 25.74942398071289 195 200 205
1.3346081972122192 -4.682468414306641 30.1495418548584 145 151 153
1.028538465499878 3.569462299346924 25.440528869628906 196 201 206
0.8776214122772217 7.093369007110596 23.649669647216797 136 138 144
1.4231359958648682 -5.297244071960449 30.66128158569336 112 115 116
1.024040699005127 4.214463233947754 25.26329803466797 43 46 49
1.4562519788742065 -5.161206245422363 30.537870407104492 138 146 143
1.374579668045044 3.6025240421295166 25.355316162109375 188 191 194
1.374579668045044 3.6025240421295166 25.355316162109375 188 191 194
1.5009915828704834 -5.36850118637085 30.355466842651367 125 133 132
1.2654622793197632 0.5635738372802734 27.126840591430664 66 67 63
1.0093297958374023 7.247692108154297 23.56433868408203 171 160 166
1.3075103759765625 0.20899824798107147 27.16888427734375 195 203 202
0.994776725769043 7.683770656585693 23.102550506591797 116 94 96
1.3304829597473145 1.9097936153411865 26.307971954345703 35 43 42
1.1106358766555786 7.0321855545043945 23.59762954711914 190 200 205
1.6761149168014526 -5.342191696166992 30.162372589111328 133 141 140
4.959379196166992 3.54062819480896 24.955326080322266 49 38 33
1.2952691316604614 4.047265529632568 25.193618774414062 39 42 45
1.5209753513336182 0.3933115005493164 27.070676803588867 64 72 73
1.7982596158981323 -4.956624984741211 29.9293212890625 121 127 127
1.7982596158981323 -4.956624984741211 29.9293212890625 121 127 127
1.288367748260498 7.718591690063477 23.239900588989258 184 180 185
1.3213485479354858 7.177684783935547 23.133119583129883 197 199 205
1.5192368030548096 3.9961178302764893 25.151596069335938 162 152 150
1.5192368030548096 3.9961178302764893 25.151596069335938 162 152 150
1.3689310550689697 7.507048606872559 23.306467056274414 187 186 190
1.3689310550689697 7.507048606872559 23.306467056274414 187 186 190
1.5634945631027222 3.5591933727264404 25.39189910888672 170 162 161
1.5909689664840698 3.799095869064331 25.284704208374023 189 196 202
1.7943047285079956 0.0019784998148679733 27.444578170776367 184 192 193
1.6287786960601807 3.3241050243377686 25.48597526550293 199 205 207
1.6287786960601807 3.3241050243377686 25.48597526550293 199 205 207
1.9644737243652344 -0.3956485092639923 27.420764923095703 65 78 77
1.9460692405700684 0.4790654182434082 27.082216262817383 64 67 68
1.9460692405700684 0.4790654182434082 27.082216262817383 64 67 68
1.7944846153259277 3.5581445693969727 25.345487594604492 142 152 155
1.8523386716842651 3.156937837600708 25.70132064819336 191 203 205
2.54634165763855 -5.026589393615723 29.980018615722656 134 142 143
4.160138130187988 2.8925015926361084 25.24733543395996 36 42 42
2.360499143600464 4.765608787536621 24.662343978881836 184 189 194
3.164050817489624 -5.126614093780518 30.46056365966797 115 121 123
3.2402453422546387 -4.50535774230957 29.87200355529785 115 115 119
3.3129732608795166 -5.261261940002441 30.57485580444336 145 156 156
3.3129732608795166 -5.261261940002441 30.57485580444336 145 156 156
3.376986026763916 -5.1530632972717285 29.868043899536133 146 157 157
2.700817823410034 5.072945594787598 24.56684684753418 33 32 41
3.383059501647949 -4.838378429412842 29.602659225463867 146 154 155
2.6442790031433105 5.9808030128479 24.079998016357422 45 44 55
3.420895576477051 -4.522634029388428 29.883453369140625 129 132 135
6.007284641265869 -0.4155366122722626 26.63922691345215 44 50 52
6.007284641265869 -0.4155366122722626 26.63922691345215 44 50 52
3.010023832321167 1.7104196548461914 26.237333297729492 51 61 66
3.515347719192505 -5.030585289001465 29.78128433227539 132 140 139
3.515347719192505 -5.030585289001465 29.78128433227539 132 140 139
3.6051933765411377 -4.924863815307617 29.964176177978516 153 164 162
2.837085008621216 5.425143241882324 24.25552749633789 83 82 89
3.67103910446167 -5.2049150466918945 30.038944244384766 145 153 152
3.142207384109497 2.0283122062683105 26.060224533081055 194 202 201
3.6716787815093994 -4.745187282562256 29.795181274414062 142 145 144
3.2762227058410645 1.6996582746505737 26.148405075073242 193 199 199
3.305126667022705 1.461940050125122 26.21390151977539 71 78 82
3.305126667022705 1.461940050125122 26.21390151977539 71 78 82
3.3235182762145996 1.8784842491149902 25.90186882019043 196 202 204
3.3235182762145996 1.8784842491149902 25.90186882019043 196 202 204
3.0609381198883057 5.614334583282471 24.129409790039062 95 84 79
3.0609381198883057 5.614334583282471 24.129409790039062 95 84 79
3.0609381198883057 5.614334583282471 24.129409790039062 95 84 79
3.4756524562835693 1.7271662950515747 26.126697540283203 98 105 113
3.527578830718994 2.3469481468200684 26.002769470214844 50 50 54
3.2877237796783447 5.3882880210876465 24.244070053100586 109 93 90
3.2877237796783447 5.3882880210876465 24.244070053100586 174 174 174
4.245715618133545 -4.753942489624023 29.78425407409668 154 160 160
3.4157047271728516 5.37973690032959 24.46419334411621 191 194 197
3.4157047271728516 5.37973690032959 24.46419334411621 191 194 197
4.279976844787598 -4.496543884277344 29.671825408935547 154 162 163
4.3343963623046875 -4.605212688446045 29.644758224487305 152 160 161
4.3343963623046875 -4.605212688446045 29.644758224487305 152 160 161
3.8150694370269775 1.6840486526489258 26.05669403076172 33 40 44
3.790283441543579 1.9060622453689575 25.84513282775879 36 46 51
3.790283441543579 1.9060622453689575 25.84513282775879 36 46 51
3.552626609802246 5.387667179107666 24.108104705810547 192 195 198
3.552626609802246 5.387667179107666 24.108104705810547 192 195 198
4.959379196166992 3.54062819480896 24.955326080322266 182 188 188
4.509606838226318 -4.442004680633545 29.118385314941406 97 97 101
3.994232654571533 2.312408208847046 25.576366424560547 54 54 58
4.831236362457275 3.093985080718994 25.30744743347168 35 38 41
4.925124645233154 -5.0527024269104 29.661813735961914 146 152 152
4.893678665161133 -4.766327857971191 29.511737823486328 136 142 142
4.307342529296875 1.057114839553833 26.19829750061035 80 74 76
4.988183498382568 -4.974359035491943 29.93039321899414 138 144 144
3.832815170288086 7.985498428344727 22.321401596069336 49 48 52
4.404655456542969 6.588869571685791 23.456872940063477 194 194 196
4.831236362457275 3.093985080718994 25.30744743347168 153 156 159
5.269956588745117 -0.3245306611061096 27.09070587158203 52 63 63
5.17542839050293 0.29139670729637146 26.514909744262695 50 62 66
5.243055820465088 -5.50883150100708 26.8963680267334 130 132 123
4.992724895477295 3.2301297187805176 25.003816604614258 40 46 48
5.894374847412109 -4.544148921966553 29.253719329833984 133 136 135
5.439403057098389 0.03739362582564354 26.615476608276367 54 62 63
5.033520698547363 3.682987928390503 24.736053466796875 36 39 40
5.033520698547363 3.682987928390503 24.736053466796875 36 39 40
5.460496425628662 0.29646188020706177 26.725278854370117 192 203 203
4.67487096786499 7.777343273162842 22.68885040283203 44 42 51
5.176183700561523 3.391730785369873 25.006885528564453 185 188 189
5.176183700561523 3.391730785369873 25.006885528564453 185 188 189
6.18779993057251 -4.998631477355957 29.715471267700195 115 118 119
6.28959321975708 -4.86879825592041 29.46078109741211 102 102 104
5.493766784667969 1.7839370965957642 25.70927619934082 35 43 42
6.380912780761719 -5.029371738433838 29.75267791748047 134 142 143
6.380912780761719 -5.029371738433838 29.75267791748047 134 142 143
5.429914951324463 3.2433888912200928 25.39993667602539 185 191 191
5.429914951324463 3.2433888912200928 25.39993667602539 185 191 191
5.700972080230713 0.028633875772356987 26.59044075012207 64 71 77
5.288088321685791 3.908102035522461 24.680706024169922 167 167 167
5.38558292388916 3.6139588356018066 25.044775009155273 193 196 199
5.708412170410156 0.283867746591568 26.507652282714844 193 196 195
5.708412170410156 0.283867746591568 26.507652282714844 193 196 195
6.492260456085205 -4.750041961669922 29.80149269104004 98 104 104
5.824560642242432 -0.2386007457971573 26.72635269165039 193 204 204
6.663525581359863 -4.75873327255249 30.551761627197266 131 137 137
5.082314968109131 6.943703651428223 23.014184951782227 46 42 43
5.542353630065918 3.2676870822906494 25.03193473815918 183 189 189
5.542353630065918 3.2676870822906494 25.03193473815918 183 189 189
5.0469818115234375 7.6752166748046875 22.647207260131836 34 33 33
5.518216133117676 3.691516637802124 24.67974090576172 192 195 196
5.518216133117676 3.691516637802124 24.67974090576172 192 195 196
5.518216133117676 3.691516637802124 24.67974090576172 192 195 196
5.936605930328369 0.04939364641904831 26.490032196044922 204 210 212
5.526244640350342 3.939098596572876 24.523818969726562 99 88 83
5.970916748046875 0.28073573112487793 26.4227352142334 75 82 86
5.970916748046875 0.28073573112487793 26.4227352142334 75 82 86
6.042436122894287 -0.13936734199523926 26.623998641967773 201 209 210
5.296128273010254 6.943105697631836 22.861841201782227 178 184 184
6.241725444793701 -0.5722504258155823 26.878433227539062 72 74 80
6.160600185394287 0.028489531949162483 26.45082664489746 59 59 63
5.771396160125732 3.504456043243408 24.739028930664062 76 70 74
5.318619728088379 7.643776893615723 22.613971710205078 108 98 112
5.791807651519775 3.6771392822265625 24.568246841430664 129 132 133
5.395565032958984 7.133018970489502 22.830196380615234 188 191 194
5.383762836456299 7.445183277130127 22.749425888061523 116 115 119
5.888488292694092 4.009887218475342 24.402372360229492 44 43 43
6.40942907333374 1.0562907457351685 26.241945266723633 40 48 49
5.569542407989502 7.385799407958984 22.63139533996582 109 103 109
6.420793533325195 0.6387665271759033 26.15113067626953 192 200 199
5.693803310394287 6.943890571594238 23.11441421508789 61 61 61
7.951231956481934 1.3374935388565063 25.36031723022461 29 24 22
-3.8393969535827637 4.465663433074951 25.255739212036133 53 45 44
5.768826007843018 7.311272621154785 22.83234405517578 34 34 38
8.232290267944336 1.1610854864120483 25.59272575378418 72 72 74
6.971456050872803 1.202567219734192 25.740999221801758 71 71 75
6.964288234710693 1.8235907554626465 25.415180206298828 46 44 51
6.917243957519531 2.238759994506836 25.17007827758789 124 120 123
7.20619010925293 1.498091459274292 25.495361328125 167 175 176
7.145540714263916 2.0461740493774414 25.20787239074707 57 64 68
7.145540714263916 2.0461740493774414 25.20787239074707 57 64 68
6.762997150421143 5.50293493270874 23.401735305786133 105 104 111
6.875452518463135 4.913646697998047 23.742033004760742 34 33 35
7.424891471862793 1.815267562866211 25.309329986572266 85 87 93
7.424891471862793 1.815267562866211 25.309329986572266 85 87 93
7.620220184326172 1.2572041749954224 25.74449920654297 48 50 58
7.620220184326172 1.2572041749954224 25.74449920654297 48 50 58
6.9385881423950195 5.668961048126221 23.082176208496094 80 73 67
7.27260684967041 5.193929672241211 23.4771785736084 91 97 99
7.232492923736572 5.406383991241455 23.272321701049805 61 61 57
7.910659313201904 1.5701860189437866 25.280221939086914 198 204 206
7.672684669494629 3.5169517993927 24.371591567993164 23 29 27
7.536333084106445 5.120416164398193 23.475601196289062 134 134 130
8.059000968933105 1.9595190286636353 25.04253578186035 43 42 51
8.394028663635254 0.487186461687088 25.82997703552246 43 49 51
7.830353260040283 5.7480669021606445 23.365774154663086 165 161 162
8.187607765197754 4.133822917938232 23.62843894958496 36 39 38
7.951584339141846 5.837339401245117 22.8731689453125 55 52 49
6.085136890411377 6.479166507720947 22.952327728271484 45 36 41
-3.7741918098392024 3.024591914696926 26.154481873603572 44 44 46
-2.8161081039785705 0.04972524287011409 27.572669508924033 62 68 68
-2.7768312631154766 0.25853130927002715 27.38579855657903 61 69 70
6.241725444793701 -0.5722504258155823 26.878433227539062 72 74 80
-0.30845834884817486 -4.766701861906798 29.694275981236842 104 110 110
0.16165827408704617 -5.276457316475403 31.155709265644454 119 125 127
0.26117617909917573 -4.919644624027582 30.20445723423672 130 133 132
0.03523890683863624 2.6061294717186443 26.029576097237552 194 202 203
0.9437920076192554 -5.24655858223883 30.736430147593236 107 110 109
1.272401308133623 -5.230788971741813 30.5840066047232 121 127 127
1.7712353190882126 -5.328677799354769 30.681146942914197 103 106 105
1.8221072905204754 -4.892849429579905 30.347078892745316 153 161 162
1.8221072905204754 -4.892849429579905 30.347078892745316 153 161 162
1.3108176811344714 3.806693292236274 25.3757407718955 168 163 161
1.3108176811344714 3.806693292236274 25.3757407718955 168 163 161
1.0093297676817539 7.247692787997664 23.5643400968983 171 160 166
2.3604987878025447 4.765607695413685 24.662339113529892 184 189 194
2.896895413568261 1.3838059980934172 26.395974515327676 50 49 56
2.896895413568261 1.3838059980934172 26.395974515327676 50 49 56
2.7008178334429402 5.072945929690497 24.566848533639803 33 32 41
4.0254627866274815 1.904444688627959 25.965566140552127 55 54 61
4.307340379887516 1.0571141248516351 26.198281304630616 80 74 76
5.673196712466356 0.44221370545991867 26.319358892840707 60 60 62
6.042390926719691 -0.1393663863543043 26.623780311091448 201 209 210
5.518211836870829 3.6915135950451066 24.679719040905514 192 195 196
5.395566349145505 7.133020708282936 22.830201828383665 188 191 194
6.654674958110223 2.7953827061100385 24.985486846055586 111 110 112
7.642857599280817 -0.13810674456749233 25.84637677662436 38 46 45
7.652830259947797 1.9725486252019495 25.125302049556762 192 198 200
-5.486172849113434 5.280926981900979 25.099572803309652 41 31 31
-2.4791968036364427 4.1841093444921515 25.395176395695998 51 47 52
1.031094752692985 4.030509309053461 25.226049625201952 164 157 149
-4.531686876992168 2.0578938751601985 26.97006389805928 58 58 62
-3.3567613430274883 3.8496811731086336 25.495068455513564 48 47 56
-1.9410458584276808 -5.187206842865134 31.480792011540697 155 163 162
-1.281925193536566 -5.109500935213628 31.000314186113453 113 113 109
1.2707423788704975 -5.042648407550218 29.957970245063745 148 156 155
11.349967945040452 -3.660063241896789 29.211370724897137 204 205 201
-2.934367076485352 -4.276512432949747 30.16901494651258 157 163 163
-1.1668759092569085 7.526025247040126 23.70762298918023 26 32 30
-1.1668759092569085 7.526025247040126 23.70762298918023 26 32 30
2.5845773811288617 -4.913931341155588 30.156819132870236 148 159 159
3.0621528125148 7.39433085668368 23.251853905614166 25 28 27
-4.498387835169383 -4.224222492721736 30.495483786022366 160 160 160
-1.5835764769529785 1.199795175629999 27.020960067928552 55 58 59
-0.3809807234087679 -4.425043270775407 29.786311717563468 162 170 169
1.423138203729633 -5.297256337254748 30.661355357762865 112 115 116
1.423138203729633 -5.297256337254748 30.661355357762865 112 115 116
2.605306465447134 -4.646117904249248 29.4839264461652 160 168 167
3.2566439790200343 3.5982447110838036 24.789934407098254 27 35 32
3.980996672608132 -5.152570139463804 29.516449042391994 145 156 156
5.006011127921915 -5.698105942426719 29.93084810842192 134 142 141
5.174596301322852 -5.203536533308778 29.518657924749004 142 150 149
5.162827643559144 -4.514765406775426 29.40665249368666 132 137 142
4.599963991095092 2.469269137133773 25.396390030043513 57 56 63
4.599963991095092 2.469269137133773 25.396390030043513 57 56 63
5.646559531394078 -4.983455619131487 29.74540750876027 145 153 154
5.646559531394078 -4.983455619131487 29.74540750876027 145 153 154
6.8496004647816875 -4.710156554958161 29.462657250329276 90 96 96
6.858100184065417 -4.629434795427876 28.953058209292628 114 120 120
7.4160688023357 -5.40323243178152 30.060957519820192 88 91 94
7.4272105786514935 7.10345636539443 22.214756513013285 22 25 24
