ply
format ascii 1.0
element vertex 677
property float x
property float y
property float z
property uchar red
property uchar green
property uchar blue
end_header
0.8595591274577646 0.06268368717876999 -0.383906449981935 197 203 201
1.0779799380057227 0.07176936554765917 -0.3852358408738822 156 162 162
1.0895969638030458 0.05191119373403673 -0.3852534404948298 97 97 98
1.0899522345095332 0.051948314902946616 -0.3854709423584444 97 97 98
0.8325801213356385 0.02056432908365449 -0.38494488449172154 162 161 167
1.0940562142316035 0.029406161551208686 -0.38618712854645637 132 142 141
1.0768808687393723 -0.0008835695858021883 -0.3857622218890665 115 115 119
1.0874160496799403 -0.0069322719552750165 -0.3849003746890051 97 96 100
0.9167911087352187 -0.011790433734954333 -0.3837130233643726 26 32 32
1.0909968280957718 -0.014456467573332164 -0.3881713562534346 96 95 97
1.0022831800601053 -0.035165471715241585 -0.3805076908458506 49 59 61
0.830503055771002 0.12880700923539384 -0.3900451684602681 204 203 203
0.8459762769264898 0.100487496186167 -0.39006403081694496 204 204 206
0.8299671273578473 0.0790588133273353 -0.38498036323058576 201 203 204
1.0029764267929813 0.027221222474368614 -0.3816742026362725 60 70 73
0.8299875085409931 0.012490765952075343 -0.3839917720429601 178 184 184
0.8323311270154332 -0.03758345911398871 -0.38247107532920477 121 117 121
1.0913363764642947 0.10778298333269333 -0.3819623862915674 142 148 143
1.0777866406873147 0.10358890509452578 -0.38529593584419164 163 161 158
1.0853609455241569 0.08978729594912485 -0.38602961659094354 111 112 108
1.0896940182855013 0.0653345678291935 -0.3857208466557964 105 104 104
1.0997171033697763 0.03535401345350306 -0.38402918443181105 127 133 131
1.0725010816324307 0.03178994906084963 -0.3858372948534853 189 193 188
1.00366637082324 -0.011548837215094105 -0.3816490133692769 65 75 80
1.0944514983915867 0.14257802228255628 -0.3873244139057717 149 154 152
1.0711913102678778 0.07742790151106556 -0.38492734115091615 190 194 189
1.0994685720866566 0.0716408429208421 -0.3898393078317734 109 116 116
1.0792158784615757 0.06821826344089274 -0.38595538332999346 158 162 161
1.080468171265239 0.06050055904903537 -0.39429144335972754 188 195 189
1.0745951861287546 0.05281958780679433 -0.38495945530309816 110 109 110
1.088794565947235 0.05324064671157465 -0.3862390737193329 142 148 148
1.082182804410912 0.045393483021182984 -0.38688094474494 145 147 148
0.8553341837662749 -0.07566430240832117 -0.387341144578055 28 31 30
0.8553341837662749 -0.07566430240832117 -0.387341144578055 28 31 30
0.8554704825750182 0.090997905219807 -0.3921336222310981 34 39 39
1.0930416058072125 0.0396196217029318 -0.3988895216682208 169 170 172
1.107184416615769 0.006212546688812537 -0.399822176396665 100 103 106
1.08371620319418 -0.028780613481178642 -0.39676112724903495 128 132 131
1.012210237848216 -0.07586324312704615 -0.39313426185383166 49 57 61
0.9711114662105098 0.0508280387443539 -0.3802015002843781 192 195 196
0.8716121833130454 0.06367656105473755 -0.38337701301433696 43 43 45
0.8315154618803985 0.06924373369730932 -0.38389192618328866 190 191 193
1.076749913393309 0.07002943344365059 -0.38271338147821093 125 124 126
0.8728461289709548 -0.0012597403347992403 -0.38305877630112006 27 30 31
0.8307527088748814 0.08056005163277082 -0.38464010025605205 144 142 143
0.8317949194788368 0.07818962132677153 -0.38492290629249254 161 156 154
0.8323089089297206 0.06268739395268963 -0.3852526414990801 177 169 171
0.8318171092192823 0.04354101691160548 -0.38469105533899706 187 186 188
0.8318713368637639 0.12092586243575869 -0.38672028376528356 192 192 194
0.8317572495668221 0.08336034233713983 -0.3855314101097199 157 153 156
0.8317157202579787 0.046294369876794667 -0.38401571099008447 140 142 138
0.8311688404727466 0.1079979834572091 -0.38201198132666936 120 115 117
0.8312001456124151 0.08771546292083444 -0.3817026537162264 135 130 132
0.954533429767711 0.0965930763588205 -0.3840594678533519 58 60 65
0.9791561869232149 -0.03667166820940317 -0.3808475168825279 28 34 32
1.0992862210435423 0.10244425015778115 -0.3895514323679516 165 168 165
0.8289831587161686 0.0679072599015835 -0.3827901932516766 188 191 192
0.875606092244376 0.01590649882072429 -0.38421134573705823 24 29 30
0.8334904593103329 -0.027755060975024275 -0.3827415033699026 116 118 119
0.8401979821427623 -0.05498961153624911 -0.3799483538983405 166 169 168
0.832991496083897 -0.021432137860307232 -0.3864662680984433 177 176 180
0.8324882905338286 0.007847884860788128 -0.3844965229485682 176 175 178
0.8353708010549178 -0.02793424429689508 -0.3863899885817145 171 168 169
0.8544907275065317 -0.03714672972282014 -0.3853145284291119 27 31 26
1.0969865639785634 0.028587773480007555 -0.3910045521052018 104 109 113
1.0889639664638582 0.012242959714310197 -0.38923231078891757 144 152 151
1.0889639664638582 0.012242959714310197 -0.38923231078891757 144 152 151
1.0843028698759878 -0.03032359772462817 -0.39127486327676375 125 131 129
0.9721547253223174 -0.0675980468505927 -0.3811069578534423 39 45 45
0.9721547253223174 -0.0675980468505927 -0.3811069578534423 39 45 45
1.105969521412178 0.03853756244996759 -0.41126075064331574 106 109 110
1.1323681997424089 0.03445083533677229 -0.4141967490832083 109 111 111
1.1231608205812265 0.016485335901154342 -0.41391643386757665 125 131 129
1.118912072968678 0.010965134717280868 -0.4130329710029099 107 107 107
1.1201495260783312 -0.0010292040378728504 -0.41505636946001956 142 148 146
1.106480030018128 0.056685135824476034 -0.39275260897054703 127 135 135
1.0894657140106252 0.05152495255200625 -0.3935585377524024 129 137 136
1.1039014176028343 0.049066676121527666 -0.39209768086396973 111 111 111
1.0799898912845032 0.029580865248224834 -0.3927722304088848 174 175 174
1.0943717029905107 0.020094476541780246 -0.390482828135648 139 145 145
1.0943717029905107 0.020094476541780246 -0.390482828135648 139 145 145
0.9717352617773317 0.08218514342748329 -0.3819783728946581 42 47 52
0.8635624828523221 0.06676837645599502 -0.3837043085763393 185 192 193
0.9089145029106244 0.08110568849992864 -0.38291713425880297 37 40 43
0.9089145029106244 0.08110568849992864 -0.38291713425880297 37 40 43
0.8332298647270657 0.0649251641332224 -0.38442658060188306 190 190 186
0.8320508512438232 -0.01721694831798285 -0.3836398937065595 186 186 188
0.8299845064778981 0.11078854314320336 -0.3875882561255669 191 191 193
0.9262718236512731 0.07552525763451871 -0.38348629518003163 185 185 184
0.8328890742548039 0.04305031967552435 -0.3838632616271848 191 190 190
0.8295769619973263 0.08011326169416857 -0.3832865204690333 183 186 189
0.952957250519825 -0.016395721206382354 -0.38105204076255206 174 185 185
0.8654808108296462 -0.06292640110897242 -0.3784685216139421 18 24 24
0.8318648686970866 0.09180313329608966 -0.3858712097868661 132 130 132
1.0866257148974898 0.10499705914708068 -0.39139549636689536 151 154 153
0.9793852166005156 -0.005730594395543052 -0.3821033639654516 172 177 179
0.8852196040972976 0.05657382495066947 -0.38493573570777145 34 40 42
1.005561435724904 0.04903128387880086 -0.3875391678490391 62 69 72
0.9093785481456338 -0.0055130465218080175 -0.3815995443668218 34 37 36
0.9534940141383927 -0.016312141656715955 -0.38209760745521176 90 97 102
1.0815540539413877 0.10177207705779077 -0.39070518291267636 155 161 161
0.853640433871092 0.08804782092723809 -0.38478704080402637 34 37 37
1.0020046047397533 -0.035525555070088144 -0.37941448165459474 43 49 49
0.9642836646320565 -0.08875834567401113 -0.378904419035106 52 54 60
0.829429070077404 0.12110392782892479 -0.3872912217861909 192 196 196
0.9266311404327019 -0.05513218160020344 -0.3812520319947736 207 213 213
0.8334227207235987 0.06666883099307729 -0.38437096969790585 185 186 187
0.9552787546937553 0.043559560530286257 -0.38203342695012044 179 185 185
0.9588258114055802 0.03743322389081383 -0.38265326191139437 53 61 62
0.9482824878346361 -0.005521292509895732 -0.3827787377759062 38 44 44
0.9482824878346361 -0.005521292509895732 -0.3827787377759062 38 44 44
0.8310918415752361 -0.03708563225458978 -0.38298892499364584 169 176 179
1.0029778774393274 -0.07455649235966773 -0.37979100097756163 44 46 51
0.8433997084268819 0.007739427798201019 -0.3820921382964025 172 178 178
0.9545540974341405 0.043528050280509184 -0.38074412974879623 188 191 192
0.9101577436602069 0.019597531876552207 -0.3836492398345078 28 31 32
0.9701030943306661 -0.06693422738574464 -0.3770431835572588 34 37 38
0.9701030943306661 -0.06693422738574464 -0.3770431835572588 34 37 38
0.9758982406762391 -0.07212535537419948 -0.3755938372302806 28 34 37
0.9017162363778669 0.10543413748617059 -0.38264891382886485 185 191 191
0.9103383118229842 0.08805891621962367 -0.3845664763570872 180 188 185
0.9097687525087133 0.08188250206602056 -0.38416905646899335 30 36 36
0.9097687525087133 0.08188250206602056 -0.38416905646899335 30 36 36
0.8295386434134979 0.06889696418047814 -0.38519528547115006 187 190 191
0.8334594085260347 0.06289293791118947 -0.38431504018193796 181 183 182
0.9161710145022895 0.050535869202227184 -0.38311361791580945 26 32 30
0.9161710145022895 0.050535869202227184 -0.38311361791580945 26 32 30
0.8326886508911845 0.09926263919647797 -0.385980695882412 142 138 142
1.0790653856603332 0.11298751692122638 -0.38412269045695135 98 97 100
0.9285504746657864 0.10337571375353966 -0.3848657479172199 24 30 28
0.9781284397913254 0.08802919491291228 -0.3813180812843767 33 41 38
0.8310981637667404 0.08095843365294537 -0.38623255379993804 139 140 144
0.9379295687154349 0.06011601676974823 -0.382973367817036 34 35 35
0.8302830557595393 0.02121664414425323 -0.3867039396985431 176 182 182
0.9269376701455166 -0.0016876487859955533 -0.3824824042199384 29 28 35
0.9737291815829294 -0.00547913380878037 -0.38412918758747294 30 36 34
0.8728997409718948 -0.0012103476327209363 -0.38560156061254225 24 30 29
0.9681783090740814 -0.01619921146963645 -0.38230604964079823 37 44 45
0.8322617140312859 -0.02717139832152092 -0.38448222017821765 176 176 177
0.8852172777826532 -0.0687515308302414 -0.38287045181146406 24 27 26
0.8545198888841667 -0.013424816479478597 -0.3835645085948964 37 38 39
0.9900940350840659 -0.04645687551962607 -0.38066968965138137 36 42 44
1.082243889632627 0.08299779521718798 -0.3901382893798822 160 169 168
1.0776310029336131 0.08253523173103554 -0.39111168912895783 187 192 186
0.8602429322698325 0.06600883314616968 -0.3825624136424779 48 35 35
0.8602429322698325 0.06600883314616968 -0.3825624136424779 48 35 35
1.099455259031504 0.059742637424847755 -0.3898333478223307 141 145 144
1.0891919840949518 0.049456578093699 -0.38456120846943737 103 106 107
1.0889415549592096 0.04753166171481108 -0.3902536825547005 147 155 154
1.1079608535940235 0.032149020831888614 -0.38902275299919614 110 110 110
1.006219996740189 0.024093647461563027 -0.38221829461135204 78 81 84
1.006219996740189 0.024093647461563027 -0.38221829461135204 78 81 84
1.096973680559818 0.020453010131704127 -0.39031562928032526 112 118 120
0.8568546807769426 0.015588457940814324 -0.38343901080291737 39 39 42
0.8608351726206337 0.01210813457946719 -0.3851858090511511 178 184 185
0.9523264749680186 -0.015075152427332551 -0.38369337652793806 47 51 58
0.948603227468106 -0.043082783884138984 -0.38215045345904336 32 37 42
0.948603227468106 -0.043082783884138984 -0.38215045345904336 32 37 42
0.9166752084579028 -0.068495238576788 -0.3828480390000727 168 172 170
0.9166752084579028 -0.068495238576788 -0.3828480390000727 168 172 170
0.904409028803153 -0.08228968220895147 -0.37876305020509315 28 28 28
1.0847849613228717 0.10206190726630292 -0.38857749446621387 153 159 159
1.103990959179457 0.09491738754474907 -0.38781246122783863 101 106 102
1.0817884434044456 0.08948320421200599 -0.38875880154816955 133 141 141
1.0817884434044456 0.08948320421200599 -0.38875880154816955 133 141 141
1.0888710370132582 0.013285067987415283 -0.3864385262117493 97 101 96
0.9801970433357502 -0.037460652399862564 -0.3830777586774581 44 52 53
1.1125095187150746 0.07876426417814925 -0.40143360052845506 138 144 144
1.0871690266203422 0.0764434529444349 -0.4022018678105542 191 195 190
1.1037663166906089 0.04526753394368562 -0.3998364685669979 100 106 105
1.112291590020637 0.04045080917718019 -0.40239932901735326 135 141 140
1.1058447892665244 0.024135199902440056 -0.40047259749558684 96 99 94
1.1058447892665244 0.024135199902440056 -0.40047259749558684 96 99 94
1.0979531337213444 0.01963631539529508 -0.4019060451050377 106 110 108
0.9538137154981047 -0.07874681840461867 -0.3862300476414736 40 45 52
1.082564609218646 0.07194147822843565 -0.3900139052545759 163 174 172
1.0826805040510326 0.06469629391656366 -0.39046490459713096 160 166 164
1.099880192434199 0.01874566565823089 -0.38928085815735997 126 130 126
0.831525638003944 0.0913928725188901 -0.38424818796426113 130 129 133
1.0020967699646572 0.05054443578202898 -0.3798673710634008 63 76 76
0.8326262155648224 0.03768106658503005 -0.384094947260418 117 117 117
0.9566770906119921 0.10557170422018242 -0.38042260721363386 55 51 51
0.8299382180052858 0.04809754568472758 -0.3848665370625066 185 185 185
0.9539352032774294 -0.07825905493588432 -0.3789255739846293 174 184 182
0.8326433858911014 0.06707560201955044 -0.38544592109955766 136 133 135
0.8349719458505758 -0.026262488218619207 -0.38267062791357137 178 178 180
0.8578243007004154 0.07611132272494682 -0.38419261349348405 33 34 35
0.8639705802445179 0.06638498035183289 -0.38427561138506144 179 185 187
0.8326132083838762 0.020961227476663437 -0.3853080985185419 129 129 133
0.8324734320562436 0.004013821688337214 -0.38512113842422946 144 140 145
1.084862323732226 -0.022925392068239743 -0.3867209755046956 75 72 77
0.8329389228513894 -0.02280601875016504 -0.38436299342812763 120 122 121
0.8911172530531947 -0.028885359403119548 -0.3822289566591355 163 169 171
0.9068306542184601 0.1099717919714098 -0.3852727583166983 42 41 43
0.9592160993516365 0.09514607763704108 -0.3837815160058631 43 33 25
0.8852810941659881 0.019147495683608115 -0.3836288291047983 30 30 32
0.8852999291712076 0.019120141204984818 -0.38380537236968043 34 37 38
0.8641232976906794 0.0036440976266072954 -0.3839716251555659 192 195 196
0.8641232976906794 0.0036440976266072954 -0.3839716251555659 192 195 196
0.8641232976906794 0.0036440976266072954 -0.3839716251555659 192 195 196
0.9412027488837929 0.11301000463733282 -0.3890344725075938 39 47 48
0.9488781200388918 0.08270857287164997 -0.38558204586948014 41 47 46
1.0932262826634245 0.08054903742762515 -0.39095738466238156 122 129 133
1.092885366922821 0.06852493265730397 -0.39292801420519563 99 101 99
1.0064493519184297 0.051001143277710326 -0.38636384279216274 59 69 76
1.0948409661193208 0.03572501637094242 -0.38893710194021835 104 105 108
1.103577377171845 0.02964633998302157 -0.39030216464241535 97 96 100
1.094937985739538 0.0242466698196292 -0.38871926853690064 97 96 99
0.8805405835504433 -0.07481617834646244 -0.3862936950278744 25 25 27
1.0993333491559782 0.08293661706429409 -0.39081036754381404 112 115 114
0.8608667982495494 0.06615123526563443 -0.3844011720107688 47 32 23
1.1157515602576185 0.11808637320715168 -0.4037882647500908 132 140 139
1.1073935697611894 0.07864596068574667 -0.3988836078227371 112 117 118
0.8891209850972752 0.045544599314758634 -0.38225996694479597 29 32 35
1.0871598139473346 0.03037564298303573 -0.39233481591178204 161 164 163
1.109172267823828 0.05792755895630416 -0.39166341044816405 125 133 131
0.8542319787967505 0.08901133332484774 -0.3830306826554979 29 35 35
0.8330162641090156 0.05476271587683226 -0.384164851289987 114 114 114
0.8330385134283951 -0.02277773977077968 -0.385055017940477 139 139 141
0.8292943541957178 0.12452873427028412 -0.38427894715954297 195 195 197
0.8289864470612371 0.1193949388581479 -0.3823512552513398 195 195 195
0.8323355186217885 0.03881126065930938 -0.38460400046780224 182 184 187
1.0871408072516502 0.02780732926440602 -0.3876172993936595 147 153 153
0.830227163483341 0.02416000282209303 -0.38521352140614773 185 188 191
0.8847621892334351 0.019378697204544156 -0.38258790906621193 25 28 29
0.8329679290216244 -0.033781975316997594 -0.3847898405456866 176 176 180
0.8893205567475183 0.031080977406908628 -0.3830382870275566 83 65 63
0.8870880556813848 0.019628697723882097 -0.38882944578109874 36 38 44
0.8870603271909212 -0.011832483862141288 -0.3892328967762831 199 202 205
0.8975335472932935 0.006812845780698924 -0.3827964461023488 25 31 31
0.9035559529351772 -0.08190025001471579 -0.38425028558742635 44 44 40
1.1042616356039083 0.08175088880590914 -0.39330372553548754 138 147 143
0.8595410206224304 -0.0008982842657005598 -0.38891285041208795 35 38 41
1.0771602761267394 -0.004208856902033792 -0.39109727618573714 193 198 196
1.0994323173903666 -0.0123662790683488 -0.3917437852095732 142 149 148
0.8897380295517249 0.031515790153250824 -0.3850247540376609 94 86 80
0.9289325274468107 -0.054242544127923564 -0.380961902162696 175 183 182
0.9829983224010069 -0.06485673888960411 -0.38135584843283926 32 35 36
0.8792951409007301 0.019340296043351402 -0.38427346821330455 190 196 198
0.8809890171296243 0.08919971920210314 -0.39002878513436184 31 32 29
1.0909221467140664 0.09681285207917216 -0.39321171180448866 122 126 127
0.8610662853202321 0.06415697153062608 -0.3893250197469244 201 202 206
1.0919669132562881 0.047450715091664736 -0.39770777202516966 156 162 163
0.8548874535469166 0.026759396855112912 -0.3856850734127206 37 40 41
0.9698817756325504 0.03338773336091391 -0.38877886603651096 190 200 203
0.8814831651571338 0.02025611281295111 -0.39091823726180464 197 200 203
1.099168249078544 0.03335693472635711 -0.39596456398500735 151 160 159
0.9516852897641503 0.021008687013369123 -0.3905091111018898 46 51 54
1.1092404689661934 0.027799277230850315 -0.39323771528555257 128 136 135
1.107605890523903 0.015480414732279372 -0.39278774953786033 95 102 103
1.1008177608683118 -0.0005479648878602162 -0.3955885080028403 154 162 159
0.8877006264512293 -0.011574498524401901 -0.39111506508422694 192 194 200
0.9574636882225591 -0.016556161963488095 -0.38998944745042197 198 205 209
1.10464206005741 -0.01603065638390071 -0.39668228033374964 145 151 151
1.0052715596104211 -0.06292396293153946 -0.3914706883340047 187 198 196
1.0052715596104211 -0.06292396293153946 -0.3914706883340047 187 198 196
0.8783848536139026 0.049593110923790144 -0.38347500957663694 33 33 35
0.8783848536139026 0.049593110923790144 -0.38347500957663694 33 33 35
0.9052349235802999 0.04597946882904574 -0.3805422581097445 41 38 42
0.9572324564705359 -0.05527360112089137 -0.3772615665829539 39 47 46
0.9638184530923816 0.03138962367635271 -0.37835847553519314 202 202 204
0.9504430647535522 0.0292777298183498 -0.37923497950008156 49 55 57
0.9458533677580094 0.024639596121021238 -0.3796020683481654 203 203 203
0.8678254374299207 0.104961278589065 -0.3929302958349164 26 31 30
0.870679768397252 0.061962828185904005 -0.38767808298818707 33 39 39
1.0878690842396765 0.026568685819808528 -0.385998831351691 104 107 110
0.9822154791797894 -0.046185149033967386 -0.38030270341138467 42 45 51
0.8834258318773787 -0.03680001265009588 -0.39831127424044777 32 35 36
0.8893034681258268 -0.03705606122912885 -0.39757170610904197 189 195 197
0.8881996254602136 -0.06943836909734868 -0.39336819739050005 30 35 36
0.9599377540552638 0.09546253327439529 -0.3715552188527785 38 44 43
0.9582519317982942 0.04175292528327804 -0.37540388172185235 48 51 50
0.9448027481264315 0.018616980140942006 -0.37747542552420277 40 48 50
0.9448027481264315 0.018616980140942006 -0.37747542552420277 40 48 50
0.9564676738448175 -0.026065172011815813 -0.3729676380482965 51 59 60
0.9867997825922135 -0.05034029579829699 -0.3661888723841184 61 71 74
0.963928847597415 -0.07305867933074602 -0.3663188179805125 188 194 194
0.8865355132233648 0.05840706652608827 -0.38804800626307207 34 37 38
0.8867965619408373 0.02049820280395235 -0.3889109370825791 35 37 43
0.8867965619408373 0.02049820280395235 -0.3889109370825791 35 37 43
0.8706487520676175 0.06305530854285442 -0.3884543023160714 30 30 32
0.879653349482752 0.05782547687461812 -0.3871588002169539 184 187 188
0.8795074753960773 0.05132776621938043 -0.38706183355038376 32 31 33
0.8795074753960773 0.05132776621938043 -0.38706183355038376 32 31 33
0.9450488489494511 -0.006637324012670883 -0.3778249892294665 34 42 41
0.8317576798898123 0.11549068856470936 -0.3850420094516639 191 187 187
0.8323475725999983 0.04479519825178961 -0.38395385931142034 137 133 134
0.8317790115514898 0.04318481823899307 -0.3833146056566562 171 174 177
0.964202813259558 -0.08874981510900408 -0.3788970452685676 38 36 38
0.8909021556207004 -0.09178011578186297 -0.3796665476621052 149 153 148
0.8292795340120839 0.09081479248967514 -0.3844955008333947 186 186 186
0.8322407016965185 -0.021109500149023054 -0.383663012231747 152 162 161
0.8295915963495235 0.07710846283536132 -0.38411003809772665 181 187 187
0.8461704489920117 0.05923743953333256 -0.3864604225242373 179 185 183
0.8893259428558792 0.030928569686873124 -0.3845669427374006 41 33 26
0.8893259428558792 0.030928569686873124 -0.3845669427374006 41 33 26
0.833090026622336 0.10696683801232493 -0.38610066879959903 136 128 131
0.909100787032313 0.08148274421988405 -0.38349051135356665 28 31 32
0.909100787032313 0.08148274421988405 -0.38349051135356665 28 31 32
1.0022430148600336 -0.035496081147174 -0.3802655409972527 61 71 74
0.9040162094267166 -0.0946463441888527 -0.38154759769236085 17 22 20
0.95529507549612 0.04369890153028335 -0.3828404928177854 184 188 189
0.95529507549612 0.04369890153028335 -0.3828404928177854 184 188 189
0.8902432132210482 -0.028578404722743322 -0.38127018301521126 178 186 185
0.8296853528255893 0.0481611606396825 -0.3845908413005214 179 182 185
0.8334759319054925 -0.03240544495767187 -0.384082039862205 89 81 86
0.9816541685050798 0.07939760171773098 -0.38225907560002986 61 69 70
0.8294592582488903 0.04760877048166086 -0.3821382532820752 176 182 182
0.8332040021791017 0.047897004182995535 -0.38394215387487274 173 175 174
0.8332176688028601 0.00945551062687362 -0.38333016266928727 160 160 160
0.8317741274092645 -0.011905131663982218 -0.38323992634176013 166 167 163
0.8327567506671666 -0.014479096791423762 -0.38301103063669306 162 168 166
0.8322402132966704 -0.01567698833257899 -0.3830530894353405 172 178 181
0.8322677599315719 -0.022668865550406085 -0.3828949528496089 128 128 128
0.8334463222670823 -0.027641976026030274 -0.38310246917439617 98 89 92
0.8298428621617879 -0.02939870260617079 -0.38245973315477694 165 168 167
0.8660668251805652 -0.05540249268519479 -0.38257418672269417 161 161 161
0.9354481136499775 -0.06240859267848554 -0.3802489537673615 22 25 24
0.8314995513353985 0.06228244741798056 -0.3839333562820041 189 187 188
0.8534775453232011 0.04943454308300128 -0.3848306577208709 26 32 30
0.8337529725580807 -0.012309528260548569 -0.38314758728446996 168 168 170
0.8330903207537396 -0.024962878311205732 -0.38424177124491543 160 160 160
0.8330582407295412 0.09865067528331851 -0.3854454377210757 190 188 190
0.8324353459209799 0.037661748238214186 -0.38394449327092894 114 113 112
0.8329400743651912 0.036561775818042236 -0.38305500571226353 177 176 178
0.8329910264835452 0.02846992387973456 -0.38398107012719995 107 103 106
0.8310172320133162 0.02586739815867988 -0.3832043950162964 143 144 146
0.9832171689492352 0.014255302137428073 -0.3822781222708071 48 61 60
0.8909783846448348 -0.028626079842288925 -0.38307775035627417 157 164 162
0.9261012748423323 -0.0611542574294492 -0.3798286684660464 149 155 149
0.9261012748423323 -0.0611542574294492 -0.3798286684660464 149 155 149
0.8838792786385061 0.08219435915513768 -0.3844409906238824 21 27 29
0.8797870148233999 -0.07418057690856744 -0.38492331391265805 17 17 17
0.9163331068970947 0.11418513546330365 -0.38531489062455004 27 33 35
0.8312542753488187 0.07993861199518881 -0.38526128559603773 182 182 182
0.8298927139305246 -0.022823044596271536 -0.3840189083032615 159 167 168
0.8335284675173884 -0.02451603033582866 -0.3830046322561137 110 116 118
0.8299742136376492 -0.025086181798458857 -0.38154965693437465 155 166 166
0.9060133841369123 -0.03383143363872117 -0.38100171557856144 18 24 22
0.9312687849757669 0.010329578945470428 -0.3822675630205796 137 155 151
0.931638543476538 0.01039776684927503 -0.38311584554316114 173 179 177
0.931638543476538 0.01039776684927503 -0.38311584554316114 173 179 177
0.8322613219724048 0.06327333131348636 -0.3849512672652937 121 120 116
0.8837172073162496 0.024751354590972566 -0.38207654939246366 167 175 172
0.9413901578647317 0.025339824575887928 -0.3827342118752388 47 55 54
0.8315900665197373 0.005316884475826317 -0.3827445855565489 163 170 173
0.8318884200179847 0.06267227006180995 -0.3836208383769921 171 170 174
0.8318268515631326 0.03282858206909545 -0.3838572623803847 182 181 183
0.8322509227097831 0.02079985693419392 -0.38385805646114673 107 106 110
0.8310736598387297 0.014963904729424774 -0.3842300867318236 122 123 125
0.8312442799312736 0.0036805881591988852 -0.38322146135378843 143 143 145
0.8301405335304854 0.000269274899469522 -0.3836255567759757 168 173 175
0.8332041050978455 -0.016226143954696955 -0.38366693226688786 166 166 164
0.8311929152078811 -0.020170212646964197 -0.3834418500577711 122 126 129
0.833264231843067 -0.023020035864642567 -0.38335712464422267 107 106 108
0.833264231843067 -0.023020035864642567 -0.38335712464422267 107 106 108
0.8955216778893705 -0.03092118580945956 -0.3820170565163183 155 161 159
0.8955216778893705 -0.03092118580945956 -0.3820170565163183 155 161 159
0.9410085581553382 -0.04243496031395132 -0.3810972748858627 170 173 172
0.831920644550784 -0.03656762024837045 -0.3833405599788884 111 110 112
0.9370929861706436 -0.05938552127769247 -0.38301457424129265 19 25 22
0.8844863891219766 -0.068501343798967 -0.3819558791306719 20 24 19
0.8785338194321389 -0.006033901633938499 -0.3831557290113208 160 166 164
0.8333229191739943 -0.013942130477555041 -0.3834436912729092 128 128 130
0.833040897420567 -0.028382308790290717 -0.38395744042374824 175 175 177
0.8306517282087075 -0.02939353857049798 -0.3838292618005201 140 141 145
0.8306517282087075 -0.02939353857049798 -0.3838292618005201 140 141 145
0.9072428396137227 0.0863425698385721 -0.37762136735999197 181 187 184
0.9586586859207346 0.03750022615577654 -0.38285811597894487 41 47 47
0.8332976611595552 0.1320964854746383 -0.3870373011501007 195 195 195
0.831498494881684 0.09677902176619527 -0.3854972245352489 128 125 120
0.8329183572204879 0.09016849562567658 -0.38408884668568727 189 189 191
0.8525328120460933 0.08712898622262999 -0.380974235926864 25 29 28
0.8310219627231005 0.08388289278507681 -0.3844290457703655 181 177 175
0.8298244281895464 0.08077346183456503 -0.3859562035727431 185 188 189
0.941747981590851 0.05117786143763329 -0.3843516464738994 32 38 36
0.8315313358192875 0.04796797527462654 -0.3835440172711519 178 177 179
0.831085174046881 0.024564344833310714 -0.383807450685823 115 116 117
0.831085174046881 0.024564344833310714 -0.383807450685823 115 116 117
0.8332952915506606 0.021993048063316006 -0.384448189701524 173 175 176
0.9103471336215957 0.019999175549315778 -0.38375804827175997 25 25 25
0.8325950856452672 0.005957372990215284 -0.3844499619300496 128 127 131
0.8317410065632027 0.005456161115962131 -0.3834300309432672 176 177 181
0.8678135973579207 0.0009915028798029057 -0.38305658139802246 25 25 25
0.8313170982260697 -0.012591414511963895 -0.38432316601911365 108 104 108
0.8535433320089594 -0.03733547792052256 -0.38413508738371316 20 23 22
0.9677937654583928 -0.09529385402680313 -0.37864632034071066 41 47 47
0.8292190651912928 0.06889854647128191 -0.3855430970699625 186 188 188
0.8340973354315055 0.010450089099353995 -0.3834576214532921 172 175 176
0.8313686154129044 -0.009701966652741943 -0.384042494468233 108 108 107
0.8304093990117986 -0.012203597143044167 -0.3847140835934134 165 167 169
0.8329251829418101 -0.025089985399489773 -0.384368994266666 160 164 163
0.8318531677567695 -0.025069773732231578 -0.38426801726200266 176 178 181
0.8319864333478564 0.04099349661785107 -0.38491290302534936 129 128 131
0.8601535440997015 0.012151334688366985 -0.3843096958583879 167 173 173
0.8333730602093912 -0.016296366224496407 -0.3841871345671386 164 164 164
0.8951648753541065 0.036097359543776054 -0.38287614691628885 172 178 178
0.8872181054558682 0.031056236939071905 -0.3787098365135879 46 32 20
0.9471741796402107 0.020148658313927655 -0.3825689698269477 31 38 37
0.915485776942549 -0.0058617934370719955 -0.3819086992344172 159 168 165
0.9266873209041321 -0.05013415104542249 -0.38224344396106885 24 27 26
0.9170149041990939 0.11215939065085638 -0.38374655183060347 31 34 35
1.003678882373348 0.050931722479215534 -0.38273517397886037 58 69 69
0.8321649718096487 0.04042863076471374 -0.38464283968756224 176 176 178
0.8321761531247921 0.04040837988507526 -0.38453351931537316 191 191 191
1.002008680078598 0.026131534411987095 -0.3800001087557708 66 77 77
0.9720421154701121 0.025391717413387065 -0.38136606588654615 181 187 185
0.9103069332852 0.01999892772232481 -0.3837598937922236 21 24 23
0.8846934641541059 0.019474178119008864 -0.384431780732123 23 26 27
0.9539699753258456 -0.03003019116051435 -0.38172710373396107 176 184 183
0.8328739207109092 -0.025102408042656704 -0.3840664533500622 170 176 178
1.0027499081954934 -0.03625700126824225 -0.38023632485003833 48 54 54
0.8314094104920629 -0.02770392327736761 -0.3834159513427949 108 108 110
0.9158451516456605 -0.04272642789856786 -0.38243738945656436 157 160 159
0.8316905237910517 -0.03794552545207141 -0.3841055934761212 88 87 89
0.8953035289952689 -0.08166788768857125 -0.381913276154407 23 23 19
0.8768230280971542 0.11220097826672988 -0.38681009753351153 26 29 28
0.8318834036354055 0.036389700935111804 -0.38444445883895956 117 113 114
1.0007965553966511 0.03501314721410563 -0.3801340400491163 58 69 69
0.8323807660328996 0.02464881898481368 -0.3843527243638564 116 112 115
0.8324021037336533 0.02471601372053292 -0.38446028316982833 120 114 116
0.8331927613218277 0.009549567902774222 -0.3842944069516851 169 167 170
0.8335219507292541 -0.013112496115967558 -0.3842141640026009 162 165 164
0.8317444725926733 -0.004420492346124863 -0.38333944300080924 179 179 176
0.831539551398684 0.034153748821440774 -0.3824451272710324 178 178 180
0.8321222145720244 0.027551884701774446 -0.38285607425331164 174 174 178
0.8321858035946864 0.02448080802280752 -0.3824397669404253 116 112 115
0.831171687381768 0.013250335567984852 -0.38232703139376933 112 111 114
0.831171687381768 0.013250335567984852 -0.38232703139376933 112 111 114
0.8316527965311072 0.010256720319263904 -0.3822511242004535 181 183 184
0.8326886192238756 0.008607802590686246 -0.38261015451420227 101 95 99
0.8325139233435386 -0.009778997761281074 -0.383106857300168 115 115 117
0.832290884107531 -0.021138851915639332 -0.3835051909909534 171 172 174
0.8631365992245947 -0.0245006747734 -0.38288023938228355 18 21 20
0.8336329300810716 -0.03407093227107216 -0.383986255217175 121 117 120
0.833306443388027 0.07118829585549587 -0.3863577402428599 125 121 122
0.8784582041838349 0.019399079235819423 -0.3827530794903262 167 170 169
0.832352275357117 0.0022611369934700007 -0.38341962346976893 108 110 118
0.832352275357117 0.0022611369934700007 -0.38341962346976893 108 110 118
0.8319375810005063 -0.002040534474087983 -0.3841963010539307 161 172 172
0.8974612350193032 -0.022487970390853047 -0.3814971462180179 154 165 162
0.8324561077531417 -0.022807250583658355 -0.38413938868596437 135 132 133
0.8298312188775687 -0.02271383091383355 -0.38349416749490467 167 170 171
0.9603024519266944 -0.05592976100898265 -0.3822266768461104 29 35 33
0.9164135061355734 0.11378500102916282 -0.38473353158652496 29 32 33
0.8782197814107242 0.08640219107759511 -0.38254851337408663 27 27 27
0.8782197814107242 0.08640219107759511 -0.38254851337408663 27 27 27
1.0822043844511398 0.04029452902795516 -0.386694329392628 119 123 118
1.0721331444394313 0.036233653998496054 -0.38027298795610953 120 126 124
1.0728805885660586 0.024202515658962455 -0.384049704506251 114 117 116
0.832811243527322 0.0051334819737933 -0.3843619986884469 132 129 126
0.989321203941687 -0.001192332983452261 -0.38144073311508586 55 59 59
0.9111573960609349 -0.04254473935924282 -0.38486244131930925 20 23 22
0.9827448687023191 -0.06471103957523122 -0.3814649558542621 41 49 49
0.9519621022191169 -0.07730131846781611 -0.3830979801800014 29 34 36
0.8330825638440492 0.10606891644786678 -0.3850523111113124 146 142 143
0.8312443368386115 0.10087649148024917 -0.38527616249654556 199 194 194
0.8315111302364041 0.06600168970633873 -0.38410273044599874 176 176 176
0.8837471514412536 0.05571203022481015 -0.3816020082711498 24 27 26
0.8747809674593912 0.015583743730861176 -0.38186426990255495 22 23 19
0.8747809674593912 0.015583743730861176 -0.38186426990255495 22 23 19
0.9144735928037879 -0.011423949450203497 -0.3805113349369807 24 30 30
0.9144735928037879 -0.011423949450203497 -0.3805113349369807 24 30 30
0.9088281278858746 -0.03730213594655749 -0.37993369121719606 167 177 170
0.9595770541630195 -0.09150815758787784 -0.37800837403713805 32 37 39
0.8298410527906172 0.07232888135012082 -0.3849334922036521 178 180 177
0.8312710754403502 -0.027734862313575963 -0.38251323257463027 120 124 124
0.8314425450534269 -0.030562710812727108 -0.3824911806325716 176 179 182
0.8311045726640613 -0.03481899971793541 -0.3831470630042167 174 180 179
0.928355513343017 -0.05423781075896572 -0.381039158353104 166 174 171
0.8287573101723289 0.07557041957527948 -0.38483734309095724 183 183 179
0.8296505521621855 0.07109313245648383 -0.3840680627360036 181 182 179
0.8310849979844068 0.07015196671571292 -0.3841061301580437 176 175 173
0.8294823903529409 0.0209356935741407 -0.38253651958523305 170 174 173
0.8316447257574676 0.009122074342680529 -0.3825646480066747 161 169 169
0.8310023853987016 0.008426239488474126 -0.38301100429855145 109 114 116
0.831013104913037 0.0010049350453870086 -0.38287551801762343 117 123 125
0.8310760875562185 -0.018001215338644235 -0.3819268332472309 110 113 112
0.9521643212793931 -0.03263628428486029 -0.37911696705150083 45 44 46
0.9303181061742375 0.07467674106115968 -0.3830117228969592 198 204 204
0.8744070307675167 0.04856250067711266 -0.3816190702775201 29 32 33
0.9038734670087948 -0.007111300860867081 -0.3780893294526694 32 35 34
0.9416739648537507 -0.006258046363941862 -0.3775150939151714 41 47 47
0.9633460766591108 -0.00677957587527735 -0.37505059136454383 56 59 62
0.9043338518773281 -0.03826656628147311 -0.37910649211706765 176 175 176
0.9951578723771252 0.03928141363752647 -0.3842729375523897 60 71 69
0.9671488862500152 0.032904030853053316 -0.3841796799119216 185 196 192
0.8787343039776526 0.025385844012810452 -0.38425674717904235 25 31 29
0.8529486040964258 -0.03674786627686775 -0.38091244153420784 23 26 25
0.8780049550542101 -0.04278992096081437 -0.38056902933065817 169 169 169
0.9845578141426466 -0.06352985999718556 -0.37877419366475573 40 42 52
0.8632994646620861 -0.05795801810392663 -0.38043528443244584 166 166 166
0.903465018699107 -0.09428533770089896 -0.3797512775560586 20 23 22
0.8639290822765542 0.0678441617132098 -0.36062952256763314 29 35 37
0.8314784056053287 0.11039472015405156 -0.38466655574925634 148 145 142
0.8314784056053287 0.11039472015405156 -0.38466655574925634 148 145 142
0.8323956571722468 0.08415777936395118 -0.387857014109857 181 181 180
0.8325048570152734 0.06374513132809886 -0.38623639984259334 121 120 116
0.8325048570152734 0.06374513132809886 -0.38623639984259334 121 120 116
0.8308647176189968 -0.0026748731093075434 -0.38353108821270837 181 181 185
0.8314019824088937 -0.015308893591282586 -0.38457022746717634 133 132 135
0.8314019824088937 -0.015308893591282586 -0.38457022746717634 133 132 135
0.9301384488999228 -0.054082480539320965 -0.38256671403929043 165 170 168
0.8323118490100315 0.037441235011583994 -0.3826786822654175 122 119 120
0.8323389938096608 0.0374676338358101 -0.382743135087763 122 119 120
0.8826076055492971 0.07960983260213506 -0.3786780700451126 29 32 33
0.9149988628488935 -0.042304933885467744 -0.37924983455614975 169 175 175
0.9405348390650716 -0.0733313271701283 -0.3796811522433369 31 34 35
0.9405348390650716 -0.0733313271701283 -0.3796811522433369 31 34 35
0.8906640933092713 -0.09147145347753997 -0.37841502953205586 164 164 164
0.7617574865036894 0.10153316528538714 -0.39246886623437327 21 19 18
0.7618259733426154 0.08071641327917194 -0.3959658774436837 32 28 30
0.8324686956729684 0.12210160508024175 -0.3888162305050714 182 178 179
0.8324686956729684 0.12210160508024175 -0.3888162305050714 182 178 179
0.8316230306624641 0.10885125326305584 -0.3866020347403693 182 178 179
0.8332532966377106 0.10688050871813821 -0.3859707865347821 145 145 148
0.7717431639468681 0.09930483088497788 -0.3852541804539566 21 20 14
0.7668905681435415 0.06832547214168892 -0.38607789902727363 25 25 21
0.7680546784993258 0.06535317239849339 -0.3872844404365316 55 58 53
0.7656695639101244 0.08183544448897807 -0.3953534762426038 27 24 21
0.8328964941047192 0.12369788599295597 -0.38738720795242954 128 122 124
0.7714072463632646 0.07624474841718763 -0.3943661380569533 39 40 39
0.7628941629127872 0.06983597253105897 -0.39359156717356797 52 59 53
0.7648354526721234 0.04071791197205892 -0.3925089997130937 41 38 33
0.7645812679622579 0.03558458315156393 -0.39198105832654817 33 30 27
0.7668118901256148 0.023578691852738462 -0.39112565235881913 56 56 50
0.8307733767638443 0.05929583187943662 -0.3841200606365606 143 142 142
0.8297299172840704 0.052494946573793576 -0.3832218533172553 176 176 177
0.8787752241125256 0.05624157365708189 -0.38437588511036186 173 176 175
0.9155518775667069 0.051140793619944905 -0.3833232693702809 31 37 37
0.8841879083260046 0.01990972653370978 -0.38346781172498556 24 27 26
0.8339433421530991 -0.014564718932517262 -0.3803683626813215 164 170 170
0.9819852336417598 0.04309248288738098 -0.3813531801421607 56 67 66
0.8307265223103124 -0.029509162363060712 -0.38303914850035103 129 131 130
0.880200300740751 -0.07446794673589407 -0.38502056699149134 17 18 14
0.832521325705096 0.12289765440871593 -0.3853117803788011 146 140 142
0.7666682733251076 0.08109766913360904 -0.3856957287077513 53 54 50
0.8319407963138225 0.1054551976832517 -0.38510849892011934 190 192 194
0.7757981991479863 0.07537922347610386 -0.3899880610395768 53 52 52
0.7677041818042386 0.07213723081259939 -0.38985092948370875 55 59 54
0.8316703756536169 0.089723994889104 -0.3847494969986079 125 125 128
0.7751308137037083 0.06582531290311737 -0.3881178263524227 20 20 16
0.7683348008379252 0.06048390744855121 -0.3911627241970768 58 57 55
0.7689629052459536 0.05715936752324728 -0.38827602012736 61 61 59
0.7689629052459536 0.05715936752324728 -0.38827602012736 61 61 59
0.7695686075959133 0.05279853534079581 -0.3906759990931958 64 65 61
0.8608948038183636 0.07464665702857769 -0.3845508191679691 38 31 24
0.7676474220017203 0.040812420014721025 -0.38846589583027097 47 48 44
0.871919398096267 0.0668603003442742 -0.3841116671514017 176 184 185
0.8319485896091772 0.03626299439321968 -0.3838588598733223 107 112 119
0.8326036849185183 0.024480099117790737 -0.3837083444437991 113 113 114
0.8319709988248892 0.005324091814597279 -0.3831862495915589 176 182 183
0.9309382057951093 0.009442983188434092 -0.38303745465843064 188 191 192
0.83252255387359 -0.017291842699703727 -0.384685024139189 171 176 178
0.9857679966802271 0.005550927263091086 -0.3814205664323587 187 190 191
0.8332491320947983 -0.038837615467312646 -0.3847288911087058 169 173 174
0.8320912403582382 0.04629029585978229 -0.38459597717823824 137 140 139
0.8727108300465244 0.012907494292171732 -0.3830466033143116 21 24 23
0.8325120970550647 -0.030790440866645306 -0.3855686033717422 165 171 169
0.952806249564832 -0.016103069674973464 -0.3816385816055629 85 93 97
0.9156641616195774 0.11245181991600674 -0.38181578563908825 40 43 44
0.9154301398231465 0.08192459374908968 -0.38235717076682285 186 189 188
0.9246444643302265 0.06680016366469212 -0.3817160269938133 187 191 190
0.8324345931252166 0.02026846532672228 -0.38373819584554336 152 150 149
0.8336933598535449 0.020521646965411915 -0.38401230351840293 177 174 172
0.8532166084723413 0.024899572070374545 -0.3827877336855555 27 33 31
0.8957802969223396 0.03603008638770623 -0.38313785338586004 173 181 178
0.8661025246065883 0.01384775933328032 -0.382734270134949 25 28 27
0.9856337196642907 0.037934540785246995 -0.38044893627785353 75 83 82
0.9406430516856586 0.020111631152829865 -0.3809945810085222 184 190 188
0.972499460211321 -0.006059924714368676 -0.38035198868912795 54 62 63
0.854235868886926 -0.07448967470733077 -0.38325979572068075 20 23 22
0.8644389215880395 -0.08804458459602478 -0.38130935084894163 17 20 19
0.8644389215880395 -0.08804458459602478 -0.38130935084894163 17 20 19
0.8762970031147165 0.11127221174458912 -0.3832544942095301 28 32 32
0.8332682531801935 -0.028525542907746306 -0.38377253627031316 168 171 173
0.9405215725351379 -0.011418251999976859 -0.38069061787631625 39 45 47
0.9350581633832813 -0.049019314967779906 -0.38136794931777634 172 183 183
0.9350581633832813 -0.049019314967779906 -0.38136794931777634 172 183 183
0.9831897816432665 -0.15508506777727143 -0.3825787903862022 16 19 18
0.8321375547668755 0.1002936751414634 -0.3860827495092378 181 180 179
0.9343763108577283 0.012950740620217107 -0.3818266931064252 178 184 183
0.9343763108577283 0.012950740620217107 -0.3818266931064252 178 184 183
0.8350139645076934 -0.027861423773004646 -0.3841216717621628 165 164 163
0.8335128826725589 0.07939776732878419 -0.38610459378156065 181 184 185
0.8340758692741144 0.07263291317850212 -0.3857900151923403 186 188 187
0.8340758692741144 0.07263291317850212 -0.3857900151923403 186 188 187
0.8600632105564026 0.06290000521802784 -0.38462703336469706 177 183 183
0.9723571500800711 0.05714153023347188 -0.3821198477464624 65 73 74
0.830357040443473 0.021069990588641327 -0.38504856019094463 173 181 182
0.8328279978608109 0.09723725846523508 -0.3852525027465078 190 189 190
0.8787554807140637 0.08773901998040914 -0.384864394179971 31 34 33
0.9380811769975174 0.060213534264414816 -0.3833524913646939 34 35 35
0.8319626002560314 0.03722169212863845 -0.3849333825153254 176 182 189
0.9067583667327873 0.02867474749457441 -0.38376992292896167 35 38 39
0.9104572040190407 -0.011595468299389495 -0.3832923379898537 167 173 173
0.8737039318658526 -0.048165067114933124 -0.38334041434677457 23 26 25
0.8737039318658526 -0.048165067114933124 -0.38334041434677457 23 26 25
0.9882999174941532 -0.15359163285011768 -0.3837222501393316 14 18 15
0.9734973573069271 0.05160075920424743 -0.38336293035439006 191 191 191
0.8979372375222514 0.006695224196299468 -0.3838204197512407 18 24 22
0.8323465668222013 0.005378441347645579 -0.3845162545889502 176 182 183
0.9104618076010925 -0.03732831628213813 -0.3827168457187457 166 172 170
0.8852210725060652 -0.07402215295015992 -0.3827623144715264 181 181 181
0.8852210725060652 -0.07402215295015992 -0.3827623144715264 181 181 181
0.9415365741634558 -0.09926668688686195 -0.3821664821302093 32 32 33
0.8251321165312608 0.16932136559372923 -0.3943870196622249 22 22 18
0.8326526022453783 0.10647743043106775 -0.3889306481985526 190 192 194
0.9386613611014447 0.11198002198964245 -0.3875900196729732 33 39 39
0.8849093189783732 0.08196271222388236 -0.38559182907586975 31 34 35
0.9775911363570963 0.02593689431140307 -0.3783050923654961 32 40 37
0.9734817228509474 -0.037121092294403815 -0.38205302628322113 165 171 169
0.9416294843133031 -0.07382406479303905 -0.38147155698676805 21 24 25
0.9663769471052008 -0.0807705947098994 -0.38184750854352784 164 168 163
1.0886035098166005 0.10371147310729553 -0.3902534064740321 91 90 92
1.0967734231902548 0.10234886633101245 -0.3892639477738872 103 102 104
1.1006577875240944 0.09910777105883674 -0.38903945015217645 108 107 107
1.0975195342603095 0.09612208202674663 -0.3896358216670737 107 106 106
1.0908225741155089 0.09168568076794942 -0.3879634811378626 169 174 174
1.1022601584230622 0.09118632609844433 -0.387194139536784 163 166 165
1.0953957230297524 0.08991773469816362 -0.3885428358224867 169 169 169
1.0999894630844032 0.08974651050393426 -0.38802768600799764 91 91 93
1.0969667278472055 0.08681515957566079 -0.38551694624222443 157 160 159
1.0953046480053719 0.0868529654486943 -0.3883393016057155 166 169 169
1.1016451174381492 0.08241490866763683 -0.3882635921235327 107 106 107
1.1016451174381492 0.08241490866763683 -0.3882635921235327 107 106 107
1.1018086791306088 0.08218519637031327 -0.3912709419619235 172 177 177
1.0836846288213657 0.08143202820993982 -0.3891865127342032 98 99 95
1.098582213916149 0.07756335254300624 -0.38676243517407166 165 170 170
1.0916865452849753 0.07410965403146737 -0.38906506876194913 109 109 112
1.0975788539739388 0.0718542885450004 -0.38783365003134773 112 112 116
1.0952723540059548 0.07204708219068408 -0.3894431807607572 166 169 170
1.1028120253669438 0.06540391745983246 -0.38818098693871766 111 114 114
1.0991291613360288 0.06406072375460345 -0.38885639651317566 109 109 112
1.0991291613360288 0.06406072375460345 -0.38885639651317566 109 109 112
1.1036324914860638 0.060438721331481975 -0.38811040415718373 109 108 110
1.1036324914860638 0.060438721331481975 -0.38811040415718373 109 108 110
1.0979761655535067 0.05857183230507764 -0.3862623860389152 135 138 139
1.1047721356522107 0.055984690654666165 -0.3866797282445727 163 166 160
1.101551265022492 0.05278486466169379 -0.38730728634393663 165 165 167
1.0989810612933832 0.05076759582353674 -0.38685187830602097 96 95 100
1.0882198944223638 0.04967315581851684 -0.3872877600847581 98 97 99
1.0866460148795594 0.047933803891369184 -0.3880631512314732 147 153 153
1.0878290373875816 0.04544798717669039 -0.38664150846128165 87 87 91
1.0946513896989398 0.04232213903299815 -0.3882203541222916 152 160 159
1.0856400471245435 0.040841754835031455 -0.3867924030211092 151 154 153
1.0998135575634134 0.03420991649029276 -0.3865784022323728 101 102 106
1.0998135575634134 0.03420991649029276 -0.3865784022323728 101 102 106
0.9289652094399525 0.03728883146551112 -0.382938863473975 19 26 24
1.0873111975735923 0.031212181489261755 -0.3845751116018946 99 99 101
1.09029490194126 0.028879365500931852 -0.3862133069824916 166 169 167
1.09029490194126 0.028879365500931852 -0.3862133069824916 166 169 167
1.0800432658073638 0.018964269656103535 -0.38740402830680915 147 153 153
1.0938488307292806 0.013196678093873223 -0.38607601988049983 102 101 104
1.0894676430025536 0.008841531994830714 -0.3868127388860898 102 101 103
1.0885127767289444 0.00784407313101009 -0.3890066101179751 149 152 153
1.0972099881968027 0.004241579449079193 -0.3868116868285837 161 165 164
1.0910962849020212 0.001945696938871912 -0.38677317464037503 160 162 161
1.0885461947418622 0.0012205460475393577 -0.38548301986839295 93 89 92
1.0885461947418622 0.0012205460475393577 -0.38548301986839295 93 89 92
1.0958774953732726 -0.0009198132820701965 -0.3875035970313007 107 106 109
0.9906033305691836 0.0011987152944396365 -0.3833779735439565 171 177 177
0.8793267996849271 -0.006080200505477068 -0.3837704382685172 190 193 194
0.8793267996849271 -0.006080200505477068 -0.3837704382685172 190 193 194
0.9421230050798571 -0.011535454588915525 -0.3842856572327287 26 27 31
0.9614765953894416 -0.022580790557242998 -0.3869478387171964 165 171 171
0.9549071819693032 -0.03018853694564487 -0.3829529594502736 163 171 170
0.9517434676078026 -0.033651583349841266 -0.38338278831284556 40 43 48
0.8889793926976851 -0.03392135047012109 -0.3841861236911654 39 38 45
0.8793301708851079 -0.03738133919820538 -0.3838812329680566 34 33 33
0.8793301708851079 -0.03738133919820538 -0.3838812329680566 34 33 33
0.9369305912581077 -0.06217168182209664 -0.3824196507084391 29 32 31
0.9217039828210682 -0.06368607944621868 -0.3830534917673731 32 31 33
0.9217039828210682 -0.06368607944621868 -0.3830534917673731 32 31 33
1.0041184907059906 -0.07482698860195935 -0.3814195035046399 34 37 38
0.9548913768652528 -0.08105237391354599 -0.38207367335937625 177 183 183
0.9548913768652528 -0.08105237391354599 -0.38207367335937625 177 183 183
